G04*
G04 #@! TF.GenerationSoftware,Altium Limited,Altium Designer,24.9.1 (31)*
G04*
G04 Layer_Color=16711935*
%FSLAX44Y44*%
%MOMM*%
G71*
G04*
G04 #@! TF.SameCoordinates,4108D936-EA1F-4614-87FC-E1DBC89B4A7E*
G04*
G04*
G04 #@! TF.FilePolarity,Negative*
G04*
G01*
G75*
G04:AMPARAMS|DCode=68|XSize=2.2032mm|YSize=1.5032mm|CornerRadius=0.4266mm|HoleSize=0mm|Usage=FLASHONLY|Rotation=180.000|XOffset=0mm|YOffset=0mm|HoleType=Round|Shape=RoundedRectangle|*
%AMROUNDEDRECTD68*
21,1,2.2032,0.6500,0,0,180.0*
21,1,1.3500,1.5032,0,0,180.0*
1,1,0.8532,-0.6750,0.3250*
1,1,0.8532,0.6750,0.3250*
1,1,0.8532,0.6750,-0.3250*
1,1,0.8532,-0.6750,-0.3250*
%
%ADD68ROUNDEDRECTD68*%
%ADD69C,1.7032*%
%ADD70C,0.2032*%
G04:AMPARAMS|DCode=71|XSize=4.2032mm|YSize=2.4032mm|CornerRadius=0.6516mm|HoleSize=0mm|Usage=FLASHONLY|Rotation=90.000|XOffset=0mm|YOffset=0mm|HoleType=Round|Shape=RoundedRectangle|*
%AMROUNDEDRECTD71*
21,1,4.2032,1.1000,0,0,90.0*
21,1,2.9000,2.4032,0,0,90.0*
1,1,1.3032,0.5500,1.4500*
1,1,1.3032,0.5500,-1.4500*
1,1,1.3032,-0.5500,-1.4500*
1,1,1.3032,-0.5500,1.4500*
%
%ADD71ROUNDEDRECTD71*%
G04:AMPARAMS|DCode=72|XSize=3.4532mm|YSize=1.7032mm|CornerRadius=0.4766mm|HoleSize=0mm|Usage=FLASHONLY|Rotation=0.000|XOffset=0mm|YOffset=0mm|HoleType=Round|Shape=RoundedRectangle|*
%AMROUNDEDRECTD72*
21,1,3.4532,0.7500,0,0,0.0*
21,1,2.5000,1.7032,0,0,0.0*
1,1,0.9532,1.2500,-0.3750*
1,1,0.9532,-1.2500,-0.3750*
1,1,0.9532,-1.2500,0.3750*
1,1,0.9532,1.2500,0.3750*
%
%ADD72ROUNDEDRECTD72*%
G04:AMPARAMS|DCode=73|XSize=4.2032mm|YSize=2.4032mm|CornerRadius=0.6516mm|HoleSize=0mm|Usage=FLASHONLY|Rotation=180.000|XOffset=0mm|YOffset=0mm|HoleType=Round|Shape=RoundedRectangle|*
%AMROUNDEDRECTD73*
21,1,4.2032,1.1000,0,0,180.0*
21,1,2.9000,2.4032,0,0,180.0*
1,1,1.3032,-1.4500,0.5500*
1,1,1.3032,1.4500,0.5500*
1,1,1.3032,1.4500,-0.5500*
1,1,1.3032,-1.4500,-0.5500*
%
%ADD73ROUNDEDRECTD73*%
%ADD74C,0.6532*%
%ADD75C,0.5000*%
%ADD76C,2.2032*%
D68*
X202700Y42700D02*
D03*
Y-42700D02*
D03*
D69*
X-229000Y-10000D02*
D03*
Y10000D02*
D03*
Y-35000D02*
D03*
Y35000D02*
D03*
D70*
X97500Y-115000D02*
D03*
X107500D02*
D03*
X117500D02*
D03*
X127500D02*
D03*
X137500D02*
D03*
X147500D02*
D03*
X-157500D02*
D03*
X-167500D02*
D03*
X-177500D02*
D03*
X-187500D02*
D03*
X-197500D02*
D03*
X-207500D02*
D03*
X-208000D02*
D03*
D71*
X26190Y-265280D02*
D03*
X91190Y-190280D02*
D03*
X-183810Y-280280D02*
D03*
D72*
X-250000Y-60000D02*
D03*
Y60000D02*
D03*
D73*
X-99810Y-183280D02*
D03*
X206190Y-190280D02*
D03*
X-40810Y-254280D02*
D03*
X-91810D02*
D03*
D74*
X8000Y-15000D02*
D03*
X193000Y-222000D02*
D03*
X164000Y-232000D02*
D03*
X151000Y-228000D02*
D03*
X18438Y47562D02*
D03*
X32000Y-47000D02*
D03*
X-116000Y-206000D02*
D03*
X41000Y-303000D02*
D03*
X1000Y-200000D02*
D03*
X51000Y-188000D02*
D03*
X82000Y-231000D02*
D03*
X96000Y-226000D02*
D03*
X124000Y-242000D02*
D03*
X138000Y-178000D02*
D03*
X177000Y-183000D02*
D03*
X167000Y-209000D02*
D03*
X205000Y-225000D02*
D03*
X209000Y-267000D02*
D03*
X169000Y-251000D02*
D03*
X145000Y-255000D02*
D03*
X160000Y-295000D02*
D03*
X-16000Y-236000D02*
D03*
X51000Y-260000D02*
D03*
X46000Y-236000D02*
D03*
X14000Y-165000D02*
D03*
X-3000Y-152000D02*
D03*
X21000Y-201000D02*
D03*
X-15000Y-200000D02*
D03*
X-41000Y-171000D02*
D03*
X-49000Y-180000D02*
D03*
X-39000Y-234000D02*
D03*
X-67000Y-222000D02*
D03*
X-126000Y-220000D02*
D03*
X-66000Y-211000D02*
D03*
X-82000Y-219000D02*
D03*
X-101000Y-214000D02*
D03*
X-143000Y-200000D02*
D03*
X-167000Y-190000D02*
D03*
X-153000Y-291000D02*
D03*
X-195000Y-244000D02*
D03*
X-203000Y-240000D02*
D03*
X-231000Y-231000D02*
D03*
X-243000Y-261000D02*
D03*
X-196000Y-211000D02*
D03*
X-183000Y-98000D02*
D03*
X-198000Y-96000D02*
D03*
X77000Y-21000D02*
D03*
X4000Y64000D02*
D03*
X192000Y-24000D02*
D03*
X150000Y-16000D02*
D03*
X189000Y0D02*
D03*
X134000Y66000D02*
D03*
X101000Y25000D02*
D03*
X89000Y-2000D02*
D03*
X32000Y-37000D02*
D03*
X-4000Y-2000D02*
D03*
X34070Y71000D02*
D03*
X-5713Y-22480D02*
D03*
X107000Y-29000D02*
D03*
X62000Y-50000D02*
D03*
X50675Y74000D02*
D03*
X40000Y76000D02*
D03*
X151000Y-75000D02*
D03*
X114000Y-87000D02*
D03*
X167000Y34000D02*
D03*
X166000Y-35000D02*
D03*
X156000Y49000D02*
D03*
X148000Y22000D02*
D03*
X96000Y-21000D02*
D03*
X134000Y37000D02*
D03*
X133000Y55000D02*
D03*
X77000Y72000D02*
D03*
X85000Y82000D02*
D03*
X-50000Y46000D02*
D03*
X-46000Y63000D02*
D03*
X11000Y-28000D02*
D03*
X-69000Y48000D02*
D03*
X-99000D02*
D03*
X69000Y62000D02*
D03*
X-11000Y43000D02*
D03*
X-15000Y6000D02*
D03*
X-213000Y-45000D02*
D03*
D75*
X26000Y-7000D02*
D03*
Y2000D02*
D03*
Y11000D02*
D03*
Y20000D02*
D03*
Y29000D02*
D03*
X35000Y-7000D02*
D03*
Y2000D02*
D03*
Y11000D02*
D03*
Y20000D02*
D03*
Y29000D02*
D03*
X44000Y-7000D02*
D03*
Y2000D02*
D03*
Y11000D02*
D03*
Y20000D02*
D03*
Y29000D02*
D03*
X53000Y-7000D02*
D03*
Y2000D02*
D03*
Y11000D02*
D03*
Y20000D02*
D03*
Y29000D02*
D03*
X62000Y-7000D02*
D03*
Y2000D02*
D03*
Y11000D02*
D03*
Y20000D02*
D03*
Y29000D02*
D03*
D76*
X-109810Y-150280D02*
D03*
X-68810D02*
D03*
X-145810D02*
D03*
X51190Y-160280D02*
D03*
X-30810Y-150280D02*
D03*
X123690Y-190280D02*
D03*
X-30812Y-79724D02*
D03*
X-68812D02*
D03*
X-109812D02*
D03*
X-145812D02*
D03*
X122500Y-40000D02*
D03*
X50000Y-70000D02*
D03*
M02*
