G04*
G04 #@! TF.GenerationSoftware,Altium Limited,Altium Designer,24.9.1 (31)*
G04*
G04 Layer_Physical_Order=1*
G04 Layer_Color=255*
%FSLAX44Y44*%
%MOMM*%
G71*
G04*
G04 #@! TF.SameCoordinates,4108D936-EA1F-4614-87FC-E1DBC89B4A7E*
G04*
G04*
G04 #@! TF.FilePolarity,Positive*
G04*
G01*
G75*
%ADD10C,0.2000*%
%ADD17R,1.4000X0.3000*%
%ADD18R,1.4500X2.0000*%
%ADD19R,0.8000X1.5000*%
%ADD20R,0.5590X0.7240*%
%ADD21R,1.9000X1.4500*%
%ADD22R,1.1500X1.8000*%
%ADD23R,0.9000X1.0500*%
%ADD24R,0.8121X0.6587*%
%ADD25R,0.4000X0.5000*%
%ADD26R,0.8000X0.9000*%
%ADD27R,0.9000X0.8000*%
%ADD28R,0.6587X0.8121*%
%ADD29R,0.5000X0.4000*%
%ADD30R,0.9582X1.1061*%
%ADD31R,0.9000X0.8000*%
G04:AMPARAMS|DCode=32|XSize=2.4692mm|YSize=0.6221mm|CornerRadius=0.3111mm|HoleSize=0mm|Usage=FLASHONLY|Rotation=180.000|XOffset=0mm|YOffset=0mm|HoleType=Round|Shape=RoundedRectangle|*
%AMROUNDEDRECTD32*
21,1,2.4692,0.0000,0,0,180.0*
21,1,1.8470,0.6221,0,0,180.0*
1,1,0.6221,-0.9235,0.0000*
1,1,0.6221,0.9235,0.0000*
1,1,0.6221,0.9235,0.0000*
1,1,0.6221,-0.9235,0.0000*
%
%ADD32ROUNDEDRECTD32*%
%ADD33R,2.4692X0.6221*%
%ADD34R,1.6000X1.0000*%
%ADD35R,0.6000X1.2500*%
%ADD36R,0.8000X0.6000*%
G04:AMPARAMS|DCode=37|XSize=0.55mm|YSize=0.8mm|CornerRadius=0.0495mm|HoleSize=0mm|Usage=FLASHONLY|Rotation=0.000|XOffset=0mm|YOffset=0mm|HoleType=Round|Shape=RoundedRectangle|*
%AMROUNDEDRECTD37*
21,1,0.5500,0.7010,0,0,0.0*
21,1,0.4510,0.8000,0,0,0.0*
1,1,0.0990,0.2255,-0.3505*
1,1,0.0990,-0.2255,-0.3505*
1,1,0.0990,-0.2255,0.3505*
1,1,0.0990,0.2255,0.3505*
%
%ADD37ROUNDEDRECTD37*%
%ADD38R,1.0000X0.6000*%
%ADD39R,0.9500X0.9000*%
%ADD40R,1.1061X0.9582*%
%ADD41R,0.9900X0.3000*%
%ADD42R,1.4546X1.5562*%
%ADD43R,1.3000X1.1000*%
%ADD44R,0.4627X0.5541*%
%ADD45R,1.1500X1.4000*%
%ADD46R,0.8061X0.8582*%
%ADD47R,0.5000X1.5240*%
%ADD48R,1.5240X1.5240*%
%ADD49R,0.7240X0.5590*%
%ADD56R,0.4000X0.9000*%
%ADD62R,4.1000X4.1000*%
G04:AMPARAMS|DCode=63|XSize=0.28mm|YSize=0.9mm|CornerRadius=0.14mm|HoleSize=0mm|Usage=FLASHONLY|Rotation=270.000|XOffset=0mm|YOffset=0mm|HoleType=Round|Shape=RoundedRectangle|*
%AMROUNDEDRECTD63*
21,1,0.2800,0.6200,0,0,270.0*
21,1,0.0000,0.9000,0,0,270.0*
1,1,0.2800,-0.3100,0.0000*
1,1,0.2800,-0.3100,0.0000*
1,1,0.2800,0.3100,0.0000*
1,1,0.2800,0.3100,0.0000*
%
%ADD63ROUNDEDRECTD63*%
G04:AMPARAMS|DCode=64|XSize=0.9mm|YSize=0.28mm|CornerRadius=0.14mm|HoleSize=0mm|Usage=FLASHONLY|Rotation=270.000|XOffset=0mm|YOffset=0mm|HoleType=Round|Shape=RoundedRectangle|*
%AMROUNDEDRECTD64*
21,1,0.9000,0.0000,0,0,270.0*
21,1,0.6200,0.2800,0,0,270.0*
1,1,0.2800,0.0000,-0.3100*
1,1,0.2800,0.0000,0.3100*
1,1,0.2800,0.0000,0.3100*
1,1,0.2800,0.0000,-0.3100*
%
%ADD64ROUNDEDRECTD64*%
%ADD75C,0.5000*%
%ADD77C,0.2540*%
%ADD78C,0.1550*%
G04:AMPARAMS|DCode=79|XSize=2mm|YSize=1.3mm|CornerRadius=0.325mm|HoleSize=0mm|Usage=FLASHONLY|Rotation=180.000|XOffset=0mm|YOffset=0mm|HoleType=Round|Shape=RoundedRectangle|*
%AMROUNDEDRECTD79*
21,1,2.0000,0.6500,0,0,180.0*
21,1,1.3500,1.3000,0,0,180.0*
1,1,0.6500,-0.6750,0.3250*
1,1,0.6500,0.6750,0.3250*
1,1,0.6500,0.6750,-0.3250*
1,1,0.6500,-0.6750,-0.3250*
%
%ADD79ROUNDEDRECTD79*%
%ADD80C,1.5000*%
G04:AMPARAMS|DCode=81|XSize=4mm|YSize=2.2mm|CornerRadius=0.55mm|HoleSize=0mm|Usage=FLASHONLY|Rotation=90.000|XOffset=0mm|YOffset=0mm|HoleType=Round|Shape=RoundedRectangle|*
%AMROUNDEDRECTD81*
21,1,4.0000,1.1000,0,0,90.0*
21,1,2.9000,2.2000,0,0,90.0*
1,1,1.1000,0.5500,1.4500*
1,1,1.1000,0.5500,-1.4500*
1,1,1.1000,-0.5500,-1.4500*
1,1,1.1000,-0.5500,1.4500*
%
%ADD81ROUNDEDRECTD81*%
G04:AMPARAMS|DCode=82|XSize=3.25mm|YSize=1.5mm|CornerRadius=0.375mm|HoleSize=0mm|Usage=FLASHONLY|Rotation=0.000|XOffset=0mm|YOffset=0mm|HoleType=Round|Shape=RoundedRectangle|*
%AMROUNDEDRECTD82*
21,1,3.2500,0.7500,0,0,0.0*
21,1,2.5000,1.5000,0,0,0.0*
1,1,0.7500,1.2500,-0.3750*
1,1,0.7500,-1.2500,-0.3750*
1,1,0.7500,-1.2500,0.3750*
1,1,0.7500,1.2500,0.3750*
%
%ADD82ROUNDEDRECTD82*%
G04:AMPARAMS|DCode=83|XSize=4mm|YSize=2.2mm|CornerRadius=0.55mm|HoleSize=0mm|Usage=FLASHONLY|Rotation=180.000|XOffset=0mm|YOffset=0mm|HoleType=Round|Shape=RoundedRectangle|*
%AMROUNDEDRECTD83*
21,1,4.0000,1.1000,0,0,180.0*
21,1,2.9000,2.2000,0,0,180.0*
1,1,1.1000,-1.4500,0.5500*
1,1,1.1000,1.4500,0.5500*
1,1,1.1000,1.4500,-0.5500*
1,1,1.1000,-1.4500,-0.5500*
%
%ADD83ROUNDEDRECTD83*%
%ADD84C,0.4500*%
%ADD85C,2.0000*%
G36*
X69000Y-53100D02*
Y-86900D01*
X80000D01*
Y-53100D01*
X69000D01*
D02*
G37*
G36*
X85000D02*
Y-86900D01*
X108300D01*
Y-53100D01*
X85000D01*
D02*
G37*
D10*
X-138000Y-291339D02*
Y-305335D01*
X-131002D01*
X-128670Y-303002D01*
Y-300670D01*
Y-298337D01*
X-131002Y-296005D01*
X-138000D01*
X-121672Y-293672D02*
Y-296005D01*
X-124004D01*
X-119339D01*
X-121672D01*
Y-303002D01*
X-119339Y-305335D01*
X-110009Y-296005D02*
X-105344D01*
X-103011Y-298337D01*
Y-305335D01*
X-110009D01*
X-112342Y-303002D01*
X-110009Y-300670D01*
X-103011D01*
X-98346Y-305335D02*
Y-296005D01*
X-91348D01*
X-89016Y-298337D01*
Y-305335D01*
X-75020Y-310000D02*
Y-296005D01*
X-82018D01*
X-84351Y-298337D01*
Y-303002D01*
X-82018Y-305335D01*
X-75020D01*
X-70355Y-296005D02*
Y-303002D01*
X-68023Y-305335D01*
X-61025D01*
Y-307667D01*
X-63358Y-310000D01*
X-65690D01*
X-61025Y-305335D02*
Y-296005D01*
X-33034Y-305335D02*
X-42364D01*
X-33034Y-296005D01*
Y-293672D01*
X-35366Y-291339D01*
X-40032D01*
X-42364Y-293672D01*
X-28369D02*
X-26036Y-291339D01*
X-21371D01*
X-19038Y-293672D01*
Y-303002D01*
X-21371Y-305335D01*
X-26036D01*
X-28369Y-303002D01*
Y-293672D01*
X-5043Y-305335D02*
X-14373D01*
X-5043Y-296005D01*
Y-293672D01*
X-7376Y-291339D01*
X-12041D01*
X-14373Y-293672D01*
X6620Y-305335D02*
Y-291339D01*
X-378Y-298337D01*
X8953D01*
D17*
X176700Y27500D02*
D03*
Y22500D02*
D03*
Y17500D02*
D03*
Y12500D02*
D03*
Y7500D02*
D03*
Y2500D02*
D03*
Y-2500D02*
D03*
Y-7500D02*
D03*
Y-12500D02*
D03*
Y-17500D02*
D03*
Y-22500D02*
D03*
Y-27500D02*
D03*
D18*
X-27250Y-23500D02*
D03*
X-164750D02*
D03*
X-27250Y59500D02*
D03*
X-164750D02*
D03*
D19*
X-128050Y33500D02*
D03*
X-117050D02*
D03*
X-106050D02*
D03*
X-95050D02*
D03*
X-84050D02*
D03*
X-73050D02*
D03*
X-62050D02*
D03*
X-51050D02*
D03*
D20*
X21190Y-170435D02*
D03*
X30690Y-190125D02*
D03*
X11690D02*
D03*
X136190Y-240125D02*
D03*
X126690Y-220435D02*
D03*
X145690D02*
D03*
D21*
X61190Y-213530D02*
D03*
Y-247030D02*
D03*
D22*
X126690Y-160280D02*
D03*
X155690D02*
D03*
D23*
X25940Y-210280D02*
D03*
X40440D02*
D03*
D24*
X-33810Y-190047D02*
D03*
Y-176513D02*
D03*
X176190Y-188513D02*
D03*
Y-202047D02*
D03*
X-158810Y-268513D02*
D03*
Y-282047D02*
D03*
X56190Y-288513D02*
D03*
Y-302047D02*
D03*
D25*
X102190Y-220280D02*
D03*
X110190D02*
D03*
X-9000Y6000D02*
D03*
X-1000D02*
D03*
X9000Y58000D02*
D03*
X17000D02*
D03*
D26*
X-91310Y-208280D02*
D03*
X-76310D02*
D03*
X-221310Y-225280D02*
D03*
X-206310D02*
D03*
X111500Y31000D02*
D03*
X126500D02*
D03*
D27*
X-8810Y-192780D02*
D03*
Y-177780D02*
D03*
X-158810Y-197780D02*
D03*
Y-212780D02*
D03*
X149000Y58500D02*
D03*
Y73500D02*
D03*
X-6000Y21000D02*
D03*
Y36000D02*
D03*
X94000Y73500D02*
D03*
Y58500D02*
D03*
D28*
X212957Y-255280D02*
D03*
X199423D02*
D03*
X70767Y-39000D02*
D03*
X57233D02*
D03*
X100767D02*
D03*
X87233D02*
D03*
D29*
X86190Y-236280D02*
D03*
Y-244280D02*
D03*
X-8810Y-156280D02*
D03*
Y-164280D02*
D03*
X-208810Y-252519D02*
D03*
Y-244519D02*
D03*
X-138810Y-206280D02*
D03*
Y-214280D02*
D03*
X-193000Y-89000D02*
D03*
Y-81000D02*
D03*
X79000Y65000D02*
D03*
Y57000D02*
D03*
X39000Y-43000D02*
D03*
Y-35000D02*
D03*
D30*
X-228000Y-261761D02*
D03*
Y-248239D02*
D03*
D31*
X-142310Y-255280D02*
D03*
X-125310D02*
D03*
X9690Y-210280D02*
D03*
X-7310D02*
D03*
D32*
X92054Y-304330D02*
D03*
Y-291630D02*
D03*
Y-278930D02*
D03*
Y-266230D02*
D03*
X140326D02*
D03*
Y-278930D02*
D03*
Y-291630D02*
D03*
D33*
Y-304330D02*
D03*
D34*
X150000Y-86000D02*
D03*
Y-54000D02*
D03*
D35*
X47190Y-270280D02*
D03*
X65190D02*
D03*
D36*
X-178000Y-91500D02*
D03*
Y-78500D02*
D03*
X94000Y6500D02*
D03*
Y19500D02*
D03*
D37*
X215690Y-212530D02*
D03*
X206190D02*
D03*
X196690D02*
D03*
Y-238030D02*
D03*
X215690D02*
D03*
D38*
X-161810Y-230780D02*
D03*
Y-249780D02*
D03*
X-185810D02*
D03*
Y-240280D02*
D03*
Y-230780D02*
D03*
X-31810Y-208780D02*
D03*
Y-227780D02*
D03*
X-55810D02*
D03*
Y-218280D02*
D03*
Y-208780D02*
D03*
D39*
X-58810Y-175280D02*
D03*
Y-191280D02*
D03*
D40*
X112239Y71000D02*
D03*
X125761D02*
D03*
D41*
X44950Y57000D02*
D03*
Y62000D02*
D03*
Y67000D02*
D03*
X61050D02*
D03*
Y62000D02*
D03*
Y57000D02*
D03*
D42*
X-1000Y-39000D02*
D03*
X17516D02*
D03*
D43*
X125000Y-80500D02*
D03*
Y-59500D02*
D03*
D44*
X94000Y-12543D02*
D03*
Y-5457D02*
D03*
X144000Y14543D02*
D03*
Y7457D02*
D03*
D45*
X111000Y12000D02*
D03*
Y-10000D02*
D03*
X127000D02*
D03*
Y12000D02*
D03*
D46*
X112989Y48000D02*
D03*
X125011D02*
D03*
D47*
X75000Y-70000D02*
D03*
D48*
X97500D02*
D03*
D49*
X141345Y-190280D02*
D03*
X161035Y-180780D02*
D03*
Y-199780D02*
D03*
D56*
X177690Y-241280D02*
D03*
X171190D02*
D03*
X164690D02*
D03*
Y-219280D02*
D03*
X171190D02*
D03*
X177690D02*
D03*
D62*
X44000Y11000D02*
D03*
D63*
X72125Y31000D02*
D03*
Y26000D02*
D03*
Y21000D02*
D03*
Y16000D02*
D03*
Y11000D02*
D03*
Y6000D02*
D03*
Y1000D02*
D03*
Y-4000D02*
D03*
Y-9000D02*
D03*
X15875D02*
D03*
Y-4000D02*
D03*
Y1000D02*
D03*
Y6000D02*
D03*
Y11000D02*
D03*
Y16000D02*
D03*
Y21000D02*
D03*
Y26000D02*
D03*
Y31000D02*
D03*
D64*
X64000Y-17125D02*
D03*
X59000D02*
D03*
X54000D02*
D03*
X49000D02*
D03*
X44000D02*
D03*
X39000D02*
D03*
X34000D02*
D03*
X29000D02*
D03*
X24000D02*
D03*
Y39125D02*
D03*
X29000D02*
D03*
X34000D02*
D03*
X39000D02*
D03*
X44000D02*
D03*
X49000D02*
D03*
X54000D02*
D03*
X59000D02*
D03*
X64000D02*
D03*
D75*
X26000Y-7000D02*
D03*
Y2000D02*
D03*
Y11000D02*
D03*
Y20000D02*
D03*
Y29000D02*
D03*
X35000Y-7000D02*
D03*
Y2000D02*
D03*
Y11000D02*
D03*
Y20000D02*
D03*
Y29000D02*
D03*
X44000Y-7000D02*
D03*
Y2000D02*
D03*
Y11000D02*
D03*
Y20000D02*
D03*
Y29000D02*
D03*
X53000Y-7000D02*
D03*
Y2000D02*
D03*
Y11000D02*
D03*
Y20000D02*
D03*
Y29000D02*
D03*
X62000Y-7000D02*
D03*
Y2000D02*
D03*
Y11000D02*
D03*
Y20000D02*
D03*
Y29000D02*
D03*
D77*
X8375Y-14625D02*
Y-13400D01*
X8000Y-15000D02*
X8375Y-14625D01*
X12775Y-9000D02*
X15875D01*
X8375Y-13400D02*
X12775Y-9000D01*
X193000Y-221470D02*
X195210Y-219260D01*
Y-214010D02*
X196690Y-212530D01*
X195210Y-219260D02*
Y-214010D01*
X193000Y-222000D02*
Y-221470D01*
X215690Y-238030D02*
Y-236780D01*
X205375Y-226465D02*
X215690Y-236780D01*
X205375Y-226465D02*
Y-225375D01*
X205000Y-225000D02*
X205375Y-225375D01*
X164000Y-232530D02*
X164690Y-233220D01*
Y-241280D02*
Y-233220D01*
X164000Y-232530D02*
Y-232000D01*
X145690Y-221260D02*
X150625Y-226195D01*
Y-227625D02*
X151000Y-228000D01*
X145690Y-221260D02*
Y-220435D01*
X150625Y-227625D02*
Y-226195D01*
X17000Y49530D02*
Y58000D01*
X18438Y47562D02*
Y48092D01*
X17000Y49530D02*
X18438Y48092D01*
X34875Y-46625D02*
X38500Y-43000D01*
X32000Y-47000D02*
X32375Y-46625D01*
X38500Y-43000D02*
X39000D01*
X32375Y-46625D02*
X34875D01*
X143000Y-30000D02*
Y-28000D01*
Y-23000D01*
X150000Y-16000D01*
X188625Y375D02*
Y5782D01*
X176930Y7270D02*
X187137D01*
X188625Y5782D01*
X176700Y7500D02*
X176930Y7270D01*
X110267Y-220357D02*
Y-213970D01*
X91190Y-196991D02*
X104384Y-210184D01*
X106482D01*
X110267Y-213970D01*
X91190Y-196991D02*
Y-190280D01*
X116190Y-281131D02*
X131091Y-266230D01*
X140326D01*
X92054Y-304330D02*
X101289D01*
X116190Y-289429D01*
Y-281131D01*
X177690Y-238780D02*
X185000Y-231470D01*
Y-206358D02*
X201078Y-190280D01*
X185000Y-231470D02*
Y-206358D01*
X201078Y-190280D02*
X206190D01*
X177690Y-241280D02*
Y-238780D01*
X-106217Y-183280D02*
X-99810D01*
X-115625Y-192688D02*
X-106217Y-183280D01*
X-115625Y-205625D02*
Y-192688D01*
X-116000Y-206000D02*
X-115625Y-205625D01*
X41375Y-302625D02*
X55612D01*
X56190Y-302047D01*
X41000Y-303000D02*
X41375Y-302625D01*
X81972Y-266230D02*
X87891D01*
X86190Y-264529D02*
X87891Y-266230D01*
X86190Y-264529D02*
Y-244280D01*
X87891Y-266230D02*
X92054D01*
X-6810Y-210280D02*
X625Y-202845D01*
X-7310Y-210280D02*
X-6810D01*
X625Y-202845D02*
Y-200375D01*
X1000Y-200000D01*
X51000Y-188000D02*
X51530D01*
X53810Y-190280D02*
X91190D01*
X51530Y-188000D02*
X53810Y-190280D01*
X82375Y-232965D02*
Y-231375D01*
X82000Y-231000D02*
X82375Y-231375D01*
X85690Y-236280D02*
X86190D01*
X82375Y-232965D02*
X85690Y-236280D01*
X96000Y-226000D02*
X96375Y-225625D01*
X102190Y-220780D02*
Y-220280D01*
X97345Y-225625D02*
X102190Y-220780D01*
X96375Y-225625D02*
X97345D01*
X126613Y-220357D02*
X126690Y-220435D01*
X110267Y-220357D02*
X126613D01*
X124530Y-242000D02*
X126405Y-240125D01*
X124000Y-242000D02*
X124530D01*
X126405Y-240125D02*
X136190D01*
X161035Y-213125D02*
X164690Y-216780D01*
X161035Y-213125D02*
Y-199780D01*
X164690Y-219280D02*
Y-216780D01*
X138000Y-178530D02*
Y-178000D01*
X141345Y-190280D02*
Y-181875D01*
X138000Y-178530D02*
X141345Y-181875D01*
X123690Y-190280D02*
Y-163280D01*
X126690Y-160280D01*
X155690Y-163530D02*
Y-160280D01*
X161035Y-180780D02*
Y-168875D01*
X155690Y-163530D02*
X161035Y-168875D01*
X176190Y-188513D02*
X177000Y-187703D01*
Y-183000D01*
X157000Y-191000D02*
X164376D01*
X151000Y-197000D02*
X157000Y-191000D01*
X151000Y-214300D02*
Y-197000D01*
X164376Y-191000D02*
X175423Y-202047D01*
X145690Y-219610D02*
X151000Y-214300D01*
X145690Y-220435D02*
Y-219610D01*
X175423Y-202047D02*
X176190D01*
X167000Y-209530D02*
Y-209000D01*
X170460Y-218550D02*
X171190Y-219280D01*
X170460Y-218550D02*
Y-212990D01*
X167000Y-209530D02*
X170460Y-212990D01*
X177690Y-227590D02*
Y-219280D01*
X171920Y-233360D02*
X177690Y-227590D01*
X171920Y-240550D02*
Y-233360D01*
X171190Y-241280D02*
X171920Y-240550D01*
X205000Y-224470D02*
X206190Y-223280D01*
Y-212530D01*
X205000Y-225000D02*
Y-224470D01*
X212957Y-263043D02*
Y-255280D01*
X209000Y-267000D02*
X212957Y-263043D01*
X196690Y-246270D02*
Y-239280D01*
Y-238030D01*
X177690Y-241280D02*
X194690D01*
X196690Y-239280D01*
X197829Y-253686D02*
Y-247409D01*
X196690Y-246270D02*
X197829Y-247409D01*
Y-253686D02*
X199423Y-255280D01*
X169000Y-250797D02*
X171190Y-248607D01*
Y-241280D01*
X169000Y-251000D02*
Y-250797D01*
X140326Y-259674D02*
X145000Y-255000D01*
X140326Y-266230D02*
Y-259674D01*
X159625Y-295375D02*
X160000Y-295000D01*
X140326Y-304330D02*
X149561D01*
X158516Y-295375D01*
X159625D01*
X149561Y-291630D02*
X177690Y-263501D01*
X140326Y-291630D02*
X149561D01*
X177690Y-263501D02*
Y-241280D01*
X157113Y-229357D02*
X164690Y-221780D01*
Y-219280D01*
X140326Y-278930D02*
X149561D01*
X157113Y-271378D01*
Y-229357D01*
X60074Y-291630D02*
X92054D01*
X56957Y-288513D02*
X60074Y-291630D01*
X56190Y-288513D02*
X56957D01*
X65190Y-280280D02*
X66540Y-278930D01*
X56957Y-288513D02*
X65190Y-280280D01*
X66540Y-278930D02*
X92054D01*
X56190Y-275810D02*
Y-266820D01*
X35598Y-281000D02*
X51000D01*
X56190Y-275810D01*
X26190Y-271592D02*
X35598Y-281000D01*
X26190Y-271592D02*
Y-265280D01*
X56190Y-266820D02*
X63010Y-260000D01*
X75742D01*
X81972Y-266230D01*
X-33750Y-254280D02*
X-16000Y-236530D01*
Y-236000D01*
X-40810Y-254280D02*
X-33750D01*
X67896Y-302047D02*
X70179Y-304330D01*
X56190Y-302047D02*
X67896D01*
X70179Y-304330D02*
X92054D01*
X65190Y-280280D02*
Y-270280D01*
X48920Y-268550D02*
Y-262610D01*
X51000Y-260530D01*
X47190Y-270280D02*
X48920Y-268550D01*
X51000Y-260530D02*
Y-260000D01*
X46000Y-236000D02*
X46375Y-236375D01*
X58940Y-247030D02*
X61190D01*
X48285Y-236375D02*
X58940Y-247030D01*
X46375Y-236375D02*
X48285D01*
X40440Y-210280D02*
X57940D01*
X61190Y-213530D01*
X30690Y-180780D02*
X51190Y-160280D01*
X30690Y-190125D02*
Y-180780D01*
X14375Y-165375D02*
X16955D01*
X21190Y-170435D02*
Y-169610D01*
X16955Y-165375D02*
X21190Y-169610D01*
X14000Y-165000D02*
X14375Y-165375D01*
X-6550Y-155550D02*
X-3000Y-152000D01*
X-3000D01*
X-8810Y-156280D02*
X-8080Y-155550D01*
X-6550D01*
X-31019Y-185989D02*
X-9310Y-164280D01*
X-33043Y-190047D02*
X-31019Y-188023D01*
X-33810Y-190047D02*
X-33043D01*
X-9310Y-164280D02*
X-8810D01*
X-31019Y-188023D02*
Y-185989D01*
X30470Y-221000D02*
X40440Y-211030D01*
X20910Y-221000D02*
X30470D01*
X10190Y-210280D02*
X20910Y-221000D01*
X21000Y-201530D02*
X22710Y-203240D01*
Y-207050D02*
X25940Y-210280D01*
X22710Y-207050D02*
Y-203240D01*
X21000Y-201530D02*
Y-201000D01*
X9690Y-210280D02*
X10190D01*
X40440Y-211030D02*
Y-210280D01*
X11690Y-208280D02*
Y-190125D01*
X9690Y-210280D02*
X11690Y-208280D01*
X-14625Y-198095D02*
X-9310Y-192780D01*
X-15000Y-200000D02*
X-14625Y-199625D01*
X-9310Y-192780D02*
X-8810D01*
X-14625Y-199625D02*
Y-198095D01*
X-41000Y-171000D02*
X-40625Y-171375D01*
X-34577Y-176513D02*
X-33810D01*
X-39715Y-171375D02*
X-34577Y-176513D01*
X-40625Y-171375D02*
X-39715D01*
X-44030Y-218000D02*
X-26000D01*
X-18280Y-210280D02*
X-7310D01*
X-26000Y-218000D02*
X-18280Y-210280D01*
X-53810Y-227780D02*
X-44030Y-218000D01*
X-55810Y-227780D02*
X-53810D01*
X-55580Y-178510D02*
X-51020D01*
X-49530Y-180000D01*
X-58810Y-175280D02*
X-55580Y-178510D01*
X-49530Y-180000D02*
X-49000D01*
X-38625Y-232595D02*
X-33810Y-227780D01*
X-38625Y-233625D02*
Y-232595D01*
X-33810Y-227780D02*
X-31810D01*
X-39000Y-234000D02*
X-38625Y-233625D01*
X-67000Y-222000D02*
X-63280Y-218280D01*
X-55810D01*
X-138810Y-214280D02*
X-131720D01*
X-126000Y-220000D01*
X-66000Y-211000D02*
X-65827D01*
X-63607Y-208780D02*
X-55810D01*
X-65827Y-211000D02*
X-63607Y-208780D01*
X-82000Y-219000D02*
Y-218470D01*
X-79040Y-211010D02*
X-76310Y-208280D01*
X-79040Y-215510D02*
Y-211010D01*
X-82000Y-218470D02*
X-79040Y-215510D01*
X-94040Y-211510D02*
X-91310Y-208780D01*
X-101000Y-214000D02*
X-100470D01*
X-91310Y-208780D02*
Y-208280D01*
X-97980Y-211510D02*
X-94040D01*
X-100470Y-214000D02*
X-97980Y-211510D01*
X-34000Y-202980D02*
Y-190237D01*
X-33810Y-190047D01*
X-34000Y-207050D02*
X-32270Y-208780D01*
X-34000Y-207050D02*
Y-202980D01*
X-20060Y-189039D01*
X-32270Y-208780D02*
X-31810D01*
X-20060Y-188530D02*
X-9310Y-177780D01*
X-20060Y-189039D02*
Y-188530D01*
X-9310Y-177780D02*
X-8810D01*
X-57577Y-190047D02*
X-33810D01*
X-58810Y-191280D02*
X-57577Y-190047D01*
X-99810Y-183280D02*
X-67060D01*
X-59060Y-191280D01*
X-58810D01*
X-139310Y-206280D02*
X-138810D01*
X-142625Y-202965D02*
X-139310Y-206280D01*
X-142625Y-202965D02*
Y-200375D01*
X-143000Y-200000D02*
X-142625Y-200375D01*
X-167000Y-190090D02*
X-159310Y-197780D01*
X-158810D01*
X-167000Y-190090D02*
Y-190000D01*
X-140810Y-212780D02*
X-139310Y-214280D01*
X-138810D01*
X-158810Y-212780D02*
X-140810D01*
X-150310Y-230780D02*
X-125810Y-255280D01*
X-125310D01*
X-161810Y-230780D02*
X-150310D01*
X-159080Y-212780D02*
X-158810D01*
X-161810Y-230780D02*
Y-215510D01*
X-159080Y-212780D01*
X-124310Y-254280D02*
X-91810D01*
X-125310Y-255280D02*
X-124310Y-254280D01*
X-158043Y-268513D02*
X-147540Y-258010D01*
X-145040D01*
X-142310Y-255280D01*
X-158810Y-268513D02*
X-158043D01*
Y-282047D02*
X-153375Y-286715D01*
X-158810Y-282047D02*
X-158043D01*
X-153375Y-290625D02*
Y-286715D01*
Y-290625D02*
X-153000Y-291000D01*
X-159577Y-268513D02*
X-158810D01*
X-161810Y-266280D02*
Y-249780D01*
Y-266280D02*
X-159577Y-268513D01*
X-187540Y-242010D02*
X-185810Y-240280D01*
X-192480Y-242010D02*
X-187540D01*
X-194470Y-244000D02*
X-192480Y-242010D01*
X-195000Y-244000D02*
X-194470D01*
X-206789Y-243789D02*
X-203000Y-240000D01*
X-203000D01*
X-208810Y-244519D02*
X-208080Y-243789D01*
X-206789D01*
X-185540Y-249780D02*
X-183810Y-251510D01*
Y-280280D02*
Y-251510D01*
X-185810Y-249780D02*
X-185540D01*
X-209040Y-227510D02*
X-196375Y-214845D01*
X-193310Y-225280D02*
X-187810Y-230780D01*
X-206310Y-225280D02*
X-193310D01*
X-187810Y-230780D02*
X-185810D01*
X-228000Y-248239D02*
Y-247500D01*
X-209040Y-228540D01*
Y-227510D01*
X-218552Y-261761D02*
X-209310Y-252519D01*
X-208810D01*
X-228000Y-261761D02*
X-218552D01*
X-224040Y-228510D02*
X-221310Y-225780D01*
X-231000Y-231000D02*
X-230625Y-230625D01*
X-221310Y-225780D02*
Y-225280D01*
X-224540Y-228510D02*
X-224040D01*
X-226655Y-230625D02*
X-224540Y-228510D01*
X-230625Y-230625D02*
X-226655D01*
X-242470Y-261000D02*
X-241709Y-261761D01*
X-243000Y-261000D02*
X-242470D01*
X-241709Y-261761D02*
X-228000D01*
X-196375Y-214845D02*
Y-211375D01*
X-196000Y-211000D01*
X-182625Y-95125D02*
X-179000Y-91500D01*
X-183000Y-98000D02*
X-182625Y-97625D01*
X-179000Y-91500D02*
X-178000D01*
X-182625Y-97625D02*
Y-95125D01*
X-197625Y-93125D02*
X-193500Y-89000D01*
X-197625Y-95625D02*
Y-93125D01*
X-193500Y-89000D02*
X-193000D01*
X-198000Y-96000D02*
X-197625Y-95625D01*
X72125Y-16125D02*
X77000Y-21000D01*
X72125Y-16125D02*
Y-9000D01*
X4000Y63500D02*
Y64000D01*
X9000Y58000D02*
Y58500D01*
X4000Y63500D02*
X9000Y58500D01*
X-42000Y22000D02*
X-14000Y50000D01*
X-1548D02*
X9327Y39125D01*
X-14000Y50000D02*
X-1548D01*
X-79832Y22000D02*
X-42000D01*
X-81320Y23488D02*
X-79832Y22000D01*
X-81320Y23488D02*
Y30770D01*
X-96000Y16000D02*
X-41000D01*
X-29730Y27270D01*
X11435D01*
X-103871Y23871D02*
X-96000Y16000D01*
X-84050Y33500D02*
X-81320Y30770D01*
X9327Y39125D02*
X24000D01*
X197502Y-18498D02*
Y-5498D01*
X192000Y-24000D02*
X197502Y-18498D01*
X188625Y375D02*
X189000Y0D01*
X176930Y12270D02*
X191730D01*
X197502Y6498D01*
Y-5498D02*
Y6498D01*
X176930Y-12270D02*
X190730D01*
X197502Y-5498D01*
X176700Y12500D02*
X176930Y12270D01*
X176700Y-12500D02*
X176930Y-12270D01*
X125761Y71000D02*
X129282Y67479D01*
X131991D01*
X133470Y66000D01*
X134000D01*
X95000Y19500D02*
X100500Y25000D01*
X101000D01*
X91375Y-2375D02*
X94000Y-5000D01*
Y-5457D02*
Y-5000D01*
X89375Y-2375D02*
X91375D01*
X89000Y-2000D02*
X89375Y-2375D01*
X33800Y-35730D02*
X38270D01*
X32000Y-37000D02*
X32530D01*
X38270Y-35730D02*
X39000Y-35000D01*
X32530Y-37000D02*
X33800Y-35730D01*
X-1000Y1000D02*
Y6000D01*
X-4000Y-2000D02*
X-1000Y1000D01*
X39060Y63230D02*
X40270D01*
X37730Y64560D02*
X39060Y63230D01*
X41500Y62000D02*
X44950D01*
X40270Y63230D02*
X41500Y62000D01*
X37730Y64560D02*
Y66810D01*
X34070Y70470D02*
X37730Y66810D01*
X34070Y70470D02*
Y71000D01*
X-35000Y73000D02*
X18000D01*
X22000Y64994D02*
Y69000D01*
X18000Y73000D02*
X22000Y69000D01*
X26000Y66000D02*
Y74000D01*
X21000Y79000D02*
X26000Y74000D01*
Y66000D02*
X42000Y50000D01*
X-40000Y79000D02*
X21000D01*
X22000Y64994D02*
X40534Y46460D01*
X38950Y39175D02*
X39000Y39125D01*
X38950Y39175D02*
Y42465D01*
X17000Y58000D02*
X23415D01*
X38950Y42465D01*
X-5713Y-34286D02*
Y-22480D01*
Y-34286D02*
X-1000Y-39000D01*
X106625Y-32375D02*
Y-29375D01*
X100767Y-39000D02*
Y-38233D01*
X106625Y-32375D01*
Y-29375D02*
X107000Y-29000D01*
X62000Y-50000D02*
X62375Y-49625D01*
X70767Y-39767D02*
Y-39000D01*
X62375Y-48159D02*
X70767Y-39767D01*
X62375Y-49625D02*
Y-48159D01*
X57233Y-29776D02*
X59000Y-28009D01*
Y-17125D01*
X57233Y-39000D02*
Y-29776D01*
X50000Y-70000D02*
X75000D01*
X150000Y-86000D02*
Y-76530D01*
X151000Y-75530D01*
Y-75000D01*
X114000Y-87000D02*
Y-86500D01*
X97500Y-70000D02*
X114000Y-86500D01*
X116800Y-84730D02*
X120770D01*
X114530Y-87000D02*
X116800Y-84730D01*
X114000Y-87000D02*
X114530D01*
X120770Y-84730D02*
X125000Y-80500D01*
X122500Y-57000D02*
X125000Y-59500D01*
X122500Y-57000D02*
Y-40000D01*
X159000Y-97000D02*
X165000Y-91000D01*
Y-91000D02*
Y-80400D01*
X-158500Y-97000D02*
X159000D01*
X165000Y-91000D01*
X-158500Y-97000D02*
X159000D01*
X-177000Y-78500D02*
X-158500Y-97000D01*
X-178000Y-78500D02*
X-177000D01*
X-179000D02*
X-178000D01*
X195192Y-50208D02*
Y-47779D01*
X165000Y-80400D02*
X195192Y-50208D01*
X200272Y-42700D02*
X202700D01*
X195192Y-47779D02*
X200272Y-42700D01*
X167375Y31325D02*
X171200Y27500D01*
X167375Y31325D02*
Y33625D01*
X167000Y34000D02*
X167375Y33625D01*
X171200Y27500D02*
X176700D01*
X166375Y-32325D02*
X171200Y-27500D01*
X176700D01*
X166375Y-34625D02*
Y-32325D01*
X166000Y-35000D02*
X166375Y-34625D01*
X169760Y-7730D02*
X176470D01*
X176700Y-7500D01*
X150000Y-54000D02*
Y-27490D01*
X169760Y-7730D01*
X149500Y58500D02*
X155625Y52375D01*
Y49375D02*
X156000Y49000D01*
X149000Y58500D02*
X149500D01*
X155625Y49375D02*
Y52375D01*
X128261Y73500D02*
X149000D01*
X125761Y71000D02*
X128261Y73500D01*
X147625Y18625D02*
Y21625D01*
X144000Y14543D02*
Y15000D01*
X147625Y18625D01*
Y21625D02*
X148000Y22000D01*
X94000Y-12543D02*
X94654Y-13197D01*
Y-19124D02*
Y-13197D01*
Y-19124D02*
X96000Y-20470D01*
Y-21000D02*
Y-20470D01*
X75295Y1000D02*
X76625Y-330D01*
X76745D01*
X87233Y-10818D01*
Y-39000D02*
Y-10818D01*
X72125Y1000D02*
X75295D01*
X85533Y6500D02*
X94000D01*
X81033Y11000D02*
X85533Y6500D01*
X72125Y11000D02*
X81033D01*
X94000Y6500D02*
X95000D01*
X84006Y16000D02*
X87506Y19500D01*
X72125Y16000D02*
X84006D01*
X87506Y19500D02*
X94000D01*
X127875Y-7875D02*
X141706Y5956D01*
X127000Y-10000D02*
Y-7000D01*
X125250D02*
X127000D01*
X122520Y-4270D02*
X125250Y-7000D01*
X122520Y-4270D02*
Y-2520D01*
X119000Y1000D02*
X122520Y-2520D01*
X100500Y1000D02*
X119000D01*
X95000Y6500D02*
X100500Y1000D01*
X141706Y5956D02*
X142956D01*
X144000Y7000D01*
Y7457D01*
X96730Y16770D02*
Y17770D01*
X95000Y19500D02*
X96730Y17770D01*
X101500Y12000D02*
X111000D01*
X96730Y16770D02*
X101500Y12000D01*
X94000Y19500D02*
X95000D01*
X94320Y-12223D02*
X108777D01*
X94000Y-12543D02*
X94320Y-12223D01*
X108777D02*
X111000Y-10000D01*
X129543Y14543D02*
X144000D01*
X127000Y12000D02*
X129543Y14543D01*
X131625Y36625D02*
X133625D01*
X126500Y31000D02*
Y31500D01*
X131625Y36625D01*
X133625D02*
X134000Y37000D01*
X125011Y48261D02*
X131375Y54625D01*
X125011Y48000D02*
Y48261D01*
X131375Y54625D02*
X132625D01*
X133000Y55000D01*
X94000Y31000D02*
X111500D01*
X84000Y21000D02*
X94000Y31000D01*
X72125Y21000D02*
X84000D01*
X72125Y26000D02*
X81762D01*
X103762Y48000D01*
X112989D01*
X77000Y71607D02*
Y72000D01*
X79000Y65000D02*
Y69607D01*
X77000Y71607D02*
X79000Y69607D01*
X85000Y82000D02*
X93500Y73500D01*
X94000D01*
X85000Y82000D02*
X85000D01*
X96730Y61230D02*
X101730D01*
X111500Y71000D02*
X112239D01*
X101730Y61230D02*
X111500Y71000D01*
X94000Y58500D02*
X96730Y61230D01*
X79000Y57000D02*
X79500D01*
X81000Y58500D02*
X94000D01*
X79500Y57000D02*
X81000Y58500D01*
X75225Y31000D02*
X79000Y34775D01*
X72125Y31000D02*
X75225D01*
X79000Y34775D02*
Y57000D01*
X-51206Y52600D02*
X-46400D01*
X-44372Y54628D01*
X-44372D01*
X-40480Y58520D01*
Y67520D01*
X-35000Y73000D01*
X42000Y50000D02*
X46000D01*
X49000Y47000D01*
X40540Y46460D02*
X43950Y43050D01*
X40534Y46460D02*
X40540D01*
X43950Y39175D02*
Y43050D01*
Y39175D02*
X44000Y39125D01*
X-59320Y44486D02*
X-51206Y52600D01*
X-59320Y36230D02*
Y44486D01*
X-62050Y33500D02*
X-59320Y36230D01*
X-46000Y63000D02*
Y73000D01*
X-40000Y79000D01*
X49000Y39125D02*
Y47000D01*
X-50000Y34550D02*
Y46000D01*
X-51050Y33500D02*
X-50000Y34550D01*
X11000Y-28530D02*
X11513Y-29043D01*
X11000Y-28530D02*
Y-28000D01*
X11513Y-32997D02*
X17516Y-39000D01*
X11513Y-32997D02*
Y-29043D01*
X17516Y-39000D02*
Y-38492D01*
X23519Y-32489D01*
X24027D02*
X34000Y-22516D01*
X23519Y-32489D02*
X24027D01*
X34000Y-22516D02*
Y-17125D01*
X36710Y-53000D02*
X44000Y-45710D01*
X-34260Y-53000D02*
X36710D01*
X-114320Y27060D02*
X-34260Y-53000D01*
X-114320Y27060D02*
Y30770D01*
X44000Y-45710D02*
Y-17125D01*
X-117050Y33500D02*
X-114320Y30770D01*
X39000Y-35000D02*
Y-17125D01*
X38000Y-61000D02*
X50000Y-49000D01*
Y-32003D02*
X54000Y-28003D01*
X50000Y-49000D02*
Y-32003D01*
X-37260Y-61000D02*
X38000D01*
X-123524Y25264D02*
X-37260Y-61000D01*
X-70320Y36230D02*
Y46150D01*
X-69000Y47470D01*
Y48000D01*
X-73050Y33500D02*
X-70320Y36230D01*
X-95050Y33500D02*
Y44050D01*
X-99000Y48000D02*
X-95050Y44050D01*
X-106050Y33500D02*
X-103871Y31321D01*
Y23871D02*
Y31321D01*
X12705Y26000D02*
X15875D01*
X11435Y27270D02*
X12705Y26000D01*
X54000Y-28003D02*
Y-17125D01*
X-123524Y25264D02*
Y25474D01*
X-128050Y30000D02*
X-123524Y25474D01*
X-128050Y30000D02*
Y33500D01*
X-190000Y-78500D02*
X-179000D01*
X-192500Y-81000D02*
X-190000Y-78500D01*
X-193000Y-81000D02*
X-192500D01*
X-197500Y-60000D02*
X-179000Y-78500D01*
X-198500Y-60000D02*
X-197500D01*
X61050Y62000D02*
X69000D01*
X-10625Y40125D02*
Y42625D01*
X-11000Y43000D02*
X-10625Y42625D01*
X-6500Y36000D02*
X-6000D01*
X-10625Y40125D02*
X-6500Y36000D01*
X-15000Y6000D02*
X-9000D01*
X-9000Y6000D01*
X2467Y21000D02*
X7467Y16000D01*
X15875D01*
X-6000Y21000D02*
X2467D01*
X4810Y6000D02*
X9760Y10950D01*
X15825D01*
X15875Y11000D01*
X-1000Y6000D02*
X4810D01*
X-164750Y-26250D02*
Y-23500D01*
X-198500Y-60000D02*
X-164750Y-26250D01*
X-250000Y-60000D02*
X-198500D01*
X-219060Y-44940D02*
X-213060D01*
X-229000Y-35000D02*
X-219060Y-44940D01*
X-213060D02*
X-213000Y-45000D01*
X176700Y27500D02*
X177500D01*
D78*
X161975Y9450D02*
Y36081D01*
X176243Y2957D02*
X176700Y2500D01*
X161975Y9450D02*
X168468Y2957D01*
X176243D01*
X20106Y84200D02*
X29045Y75261D01*
X20106Y84200D02*
X31800D01*
X-105779D02*
X20106D01*
X29045Y67955D02*
Y75261D01*
X31800Y84200D02*
X40000Y76000D01*
X-191754Y-1775D02*
X-105779Y84200D01*
X29045Y67955D02*
X39275Y57725D01*
X44225D02*
X44950Y57000D01*
X39275Y57725D02*
X44225D01*
X49000Y75000D02*
X61025Y87025D01*
X45650Y76670D02*
Y78088D01*
X36188Y87550D02*
X45650Y78088D01*
X-107450Y87550D02*
X36188D01*
X46043Y77063D02*
X59555Y90575D01*
X45650Y76670D02*
X46043Y77063D01*
X-193225Y1775D02*
X-107450Y87550D01*
X168925Y43031D02*
Y74075D01*
X161975Y36081D02*
X168925Y43031D01*
X152425Y90575D02*
X168925Y74075D01*
X59555Y90575D02*
X152425D01*
X45650Y67700D02*
Y76670D01*
X44950Y67000D02*
X45650Y67700D01*
X150955Y87025D02*
X165375Y72604D01*
X61025Y87025D02*
X150955D01*
X165375Y44502D02*
Y72604D01*
X49000Y75000D02*
X50000Y74000D01*
X50675D01*
X158425Y7980D02*
X168904Y-2500D01*
X176700D01*
X158425Y37552D02*
X165375Y44502D01*
X158425Y7980D02*
Y37552D01*
X-220775Y-1775D02*
X-191754D01*
X-220775Y1775D02*
X-193225D01*
X-229000Y10000D02*
X-220775Y1775D01*
X-229000Y-10000D02*
X-220775Y-1775D01*
X54000Y39125D02*
Y64000D01*
X56275Y66275D01*
X60325D01*
X61050Y67000D01*
X59000Y39125D02*
Y42563D01*
X61050Y44613D01*
Y57000D01*
D79*
X202700Y42700D02*
D03*
Y-42700D02*
D03*
D80*
X-229000Y-10000D02*
D03*
Y10000D02*
D03*
Y-35000D02*
D03*
Y35000D02*
D03*
D81*
X26190Y-265280D02*
D03*
X91190Y-190280D02*
D03*
X-183810Y-280280D02*
D03*
D82*
X-250000Y-60000D02*
D03*
Y60000D02*
D03*
D83*
X-99810Y-183280D02*
D03*
X206190Y-190280D02*
D03*
X-40810Y-254280D02*
D03*
X-91810D02*
D03*
D84*
X8000Y-15000D02*
D03*
X193000Y-222000D02*
D03*
X164000Y-232000D02*
D03*
X151000Y-228000D02*
D03*
X18438Y47562D02*
D03*
X32000Y-47000D02*
D03*
X-116000Y-206000D02*
D03*
X41000Y-303000D02*
D03*
X1000Y-200000D02*
D03*
X51000Y-188000D02*
D03*
X82000Y-231000D02*
D03*
X96000Y-226000D02*
D03*
X124000Y-242000D02*
D03*
X138000Y-178000D02*
D03*
X177000Y-183000D02*
D03*
X167000Y-209000D02*
D03*
X205000Y-225000D02*
D03*
X209000Y-267000D02*
D03*
X169000Y-251000D02*
D03*
X145000Y-255000D02*
D03*
X160000Y-295000D02*
D03*
X-16000Y-236000D02*
D03*
X51000Y-260000D02*
D03*
X46000Y-236000D02*
D03*
X14000Y-165000D02*
D03*
X-3000Y-152000D02*
D03*
X21000Y-201000D02*
D03*
X-15000Y-200000D02*
D03*
X-41000Y-171000D02*
D03*
X-49000Y-180000D02*
D03*
X-39000Y-234000D02*
D03*
X-67000Y-222000D02*
D03*
X-126000Y-220000D02*
D03*
X-66000Y-211000D02*
D03*
X-82000Y-219000D02*
D03*
X-101000Y-214000D02*
D03*
X-143000Y-200000D02*
D03*
X-167000Y-190000D02*
D03*
X-153000Y-291000D02*
D03*
X-195000Y-244000D02*
D03*
X-203000Y-240000D02*
D03*
X-231000Y-231000D02*
D03*
X-243000Y-261000D02*
D03*
X-196000Y-211000D02*
D03*
X-183000Y-98000D02*
D03*
X-198000Y-96000D02*
D03*
X77000Y-21000D02*
D03*
X4000Y64000D02*
D03*
X192000Y-24000D02*
D03*
X150000Y-16000D02*
D03*
X189000Y0D02*
D03*
X134000Y66000D02*
D03*
X101000Y25000D02*
D03*
X89000Y-2000D02*
D03*
X32000Y-37000D02*
D03*
X-4000Y-2000D02*
D03*
X34070Y71000D02*
D03*
X-5713Y-22480D02*
D03*
X107000Y-29000D02*
D03*
X62000Y-50000D02*
D03*
X50675Y74000D02*
D03*
X40000Y76000D02*
D03*
X151000Y-75000D02*
D03*
X114000Y-87000D02*
D03*
X167000Y34000D02*
D03*
X166000Y-35000D02*
D03*
X156000Y49000D02*
D03*
X148000Y22000D02*
D03*
X96000Y-21000D02*
D03*
X134000Y37000D02*
D03*
X133000Y55000D02*
D03*
X77000Y72000D02*
D03*
X85000Y82000D02*
D03*
X-50000Y46000D02*
D03*
X-46000Y63000D02*
D03*
X11000Y-28000D02*
D03*
X-69000Y48000D02*
D03*
X-99000D02*
D03*
X69000Y62000D02*
D03*
X-11000Y43000D02*
D03*
X-15000Y6000D02*
D03*
X-213000Y-45000D02*
D03*
D85*
X-109810Y-150280D02*
D03*
X-68810D02*
D03*
X-145810D02*
D03*
X51190Y-160280D02*
D03*
X-30810Y-150280D02*
D03*
X123690Y-190280D02*
D03*
X-30812Y-79724D02*
D03*
X-68812D02*
D03*
X-109812D02*
D03*
X-145812D02*
D03*
X122500Y-40000D02*
D03*
X50000Y-70000D02*
D03*
M02*
