G04*
G04 #@! TF.GenerationSoftware,Altium Limited,Altium Designer,24.9.1 (31)*
G04*
G04 Layer_Physical_Order=3*
G04 Layer_Color=16440176*
%FSLAX44Y44*%
%MOMM*%
G71*
G04*
G04 #@! TF.SameCoordinates,4108D936-EA1F-4614-87FC-E1DBC89B4A7E*
G04*
G04*
G04 #@! TF.FilePolarity,Positive*
G04*
G01*
G75*
%ADD75C,0.5000*%
%ADD77C,0.2540*%
G04:AMPARAMS|DCode=79|XSize=2mm|YSize=1.3mm|CornerRadius=0.325mm|HoleSize=0mm|Usage=FLASHONLY|Rotation=180.000|XOffset=0mm|YOffset=0mm|HoleType=Round|Shape=RoundedRectangle|*
%AMROUNDEDRECTD79*
21,1,2.0000,0.6500,0,0,180.0*
21,1,1.3500,1.3000,0,0,180.0*
1,1,0.6500,-0.6750,0.3250*
1,1,0.6500,0.6750,0.3250*
1,1,0.6500,0.6750,-0.3250*
1,1,0.6500,-0.6750,-0.3250*
%
%ADD79ROUNDEDRECTD79*%
%ADD80C,1.5000*%
G04:AMPARAMS|DCode=81|XSize=4mm|YSize=2.2mm|CornerRadius=0.55mm|HoleSize=0mm|Usage=FLASHONLY|Rotation=90.000|XOffset=0mm|YOffset=0mm|HoleType=Round|Shape=RoundedRectangle|*
%AMROUNDEDRECTD81*
21,1,4.0000,1.1000,0,0,90.0*
21,1,2.9000,2.2000,0,0,90.0*
1,1,1.1000,0.5500,1.4500*
1,1,1.1000,0.5500,-1.4500*
1,1,1.1000,-0.5500,-1.4500*
1,1,1.1000,-0.5500,1.4500*
%
%ADD81ROUNDEDRECTD81*%
G04:AMPARAMS|DCode=82|XSize=3.25mm|YSize=1.5mm|CornerRadius=0.375mm|HoleSize=0mm|Usage=FLASHONLY|Rotation=0.000|XOffset=0mm|YOffset=0mm|HoleType=Round|Shape=RoundedRectangle|*
%AMROUNDEDRECTD82*
21,1,3.2500,0.7500,0,0,0.0*
21,1,2.5000,1.5000,0,0,0.0*
1,1,0.7500,1.2500,-0.3750*
1,1,0.7500,-1.2500,-0.3750*
1,1,0.7500,-1.2500,0.3750*
1,1,0.7500,1.2500,0.3750*
%
%ADD82ROUNDEDRECTD82*%
G04:AMPARAMS|DCode=83|XSize=4mm|YSize=2.2mm|CornerRadius=0.55mm|HoleSize=0mm|Usage=FLASHONLY|Rotation=180.000|XOffset=0mm|YOffset=0mm|HoleType=Round|Shape=RoundedRectangle|*
%AMROUNDEDRECTD83*
21,1,4.0000,1.1000,0,0,180.0*
21,1,2.9000,2.2000,0,0,180.0*
1,1,1.1000,-1.4500,0.5500*
1,1,1.1000,1.4500,0.5500*
1,1,1.1000,1.4500,-0.5500*
1,1,1.1000,-1.4500,-0.5500*
%
%ADD83ROUNDEDRECTD83*%
%ADD84C,0.4500*%
%ADD85C,2.0000*%
G36*
X165820Y92961D02*
X168064Y92118D01*
X168747Y86930D01*
X168790Y86803D01*
X168799Y86669D01*
X170153Y81615D01*
X170213Y81494D01*
X170239Y81362D01*
X172241Y76528D01*
X172316Y76416D01*
X172359Y76289D01*
X174975Y71758D01*
X175064Y71656D01*
X175124Y71536D01*
X178309Y67385D01*
X178410Y67296D01*
X178485Y67184D01*
X182184Y63485D01*
X182296Y63410D01*
X182385Y63309D01*
X186536Y60124D01*
X186656Y60064D01*
X186758Y59975D01*
X191289Y57359D01*
X191416Y57316D01*
X191528Y57241D01*
X196362Y55239D01*
X196494Y55213D01*
X196615Y55153D01*
X199450Y54393D01*
X199116Y51853D01*
X195950D01*
X193691Y51404D01*
X191776Y50124D01*
X190496Y48209D01*
X190047Y45950D01*
Y39450D01*
X190496Y37191D01*
X191776Y35276D01*
X193691Y33996D01*
X195950Y33547D01*
X209450D01*
X211709Y33996D01*
X213624Y35276D01*
X214904Y37191D01*
X215353Y39450D01*
Y45950D01*
X214904Y48209D01*
X213643Y50096D01*
X213672Y50232D01*
X214667Y52482D01*
X216697Y52079D01*
X220876Y50348D01*
X224637Y47835D01*
X227835Y44637D01*
X230348Y40876D01*
X232079Y36697D01*
X232961Y32262D01*
Y30000D01*
Y-40000D01*
Y-42262D01*
X232079Y-46697D01*
X230348Y-50876D01*
X227835Y-54637D01*
X224637Y-57835D01*
X220876Y-60348D01*
X216697Y-62079D01*
X212262Y-62961D01*
X210000D01*
X209967Y-62968D01*
X209933Y-62962D01*
X207317Y-63048D01*
X207219Y-63071D01*
X207118Y-63064D01*
X201930Y-63747D01*
X201803Y-63790D01*
X201669Y-63799D01*
X196615Y-65153D01*
X196494Y-65213D01*
X196362Y-65239D01*
X191528Y-67241D01*
X191416Y-67316D01*
X191289Y-67359D01*
X186758Y-69975D01*
X186656Y-70064D01*
X186536Y-70124D01*
X182385Y-73309D01*
X182296Y-73410D01*
X182184Y-73485D01*
X178485Y-77184D01*
X178410Y-77296D01*
X178309Y-77385D01*
X175124Y-81536D01*
X175064Y-81657D01*
X174975Y-81758D01*
X172359Y-86289D01*
X172316Y-86416D01*
X172241Y-86528D01*
X170239Y-91362D01*
X170213Y-91494D01*
X170153Y-91615D01*
X168799Y-96669D01*
X168790Y-96803D01*
X168747Y-96930D01*
X168293Y-100378D01*
X166059Y-102314D01*
X165535Y-102365D01*
X120548D01*
X120298Y-99825D01*
X121487Y-99589D01*
X122747Y-98747D01*
X144070Y-77424D01*
X146939Y-77713D01*
X148287Y-79061D01*
X150047Y-79790D01*
X151953D01*
X153713Y-79061D01*
X155061Y-77713D01*
X155790Y-75953D01*
Y-74047D01*
X155061Y-72287D01*
X153713Y-70939D01*
X153424Y-68070D01*
X192704Y-28790D01*
X192953D01*
X194713Y-28061D01*
X196061Y-26713D01*
X196790Y-24953D01*
Y-23047D01*
X196061Y-21287D01*
X194713Y-19939D01*
X192953Y-19210D01*
X191047D01*
X189287Y-19939D01*
X187939Y-21287D01*
X187210Y-23047D01*
Y-23296D01*
X172822Y-37684D01*
X170669Y-36245D01*
X170790Y-35953D01*
Y-34047D01*
X170061Y-32287D01*
X168713Y-30939D01*
X166953Y-30210D01*
X165047D01*
X163287Y-30939D01*
X161939Y-32287D01*
X161210Y-34047D01*
Y-35953D01*
X161939Y-37713D01*
X163287Y-39061D01*
X165047Y-39790D01*
X166953D01*
X167245Y-39669D01*
X168684Y-41822D01*
X120822Y-89684D01*
X118669Y-88245D01*
X118790Y-87953D01*
Y-86047D01*
X118061Y-84287D01*
X116713Y-82939D01*
X114953Y-82210D01*
X113047D01*
X111287Y-82939D01*
X109939Y-84287D01*
X109210Y-86047D01*
Y-87953D01*
X109939Y-89713D01*
X108749Y-92115D01*
X-22115D01*
X-22847Y-90387D01*
X-22929Y-89575D01*
X-20778Y-87424D01*
X-19127Y-84564D01*
X-18272Y-81375D01*
Y-80994D01*
X-43352D01*
Y-81375D01*
X-42498Y-84564D01*
X-40847Y-87424D01*
X-38695Y-89575D01*
X-38778Y-90387D01*
X-39510Y-92115D01*
X-60114D01*
X-60847Y-90387D01*
X-60929Y-89575D01*
X-58778Y-87424D01*
X-57127Y-84564D01*
X-56272Y-81375D01*
Y-78073D01*
X-57127Y-74884D01*
X-58778Y-72024D01*
X-61112Y-69690D01*
X-63972Y-68039D01*
X-67161Y-67184D01*
X-70463D01*
X-73652Y-68039D01*
X-76512Y-69690D01*
X-78847Y-72024D01*
X-80498Y-74884D01*
X-81352Y-78073D01*
Y-81375D01*
X-80498Y-84564D01*
X-78847Y-87424D01*
X-76695Y-89575D01*
X-76778Y-90387D01*
X-77510Y-92115D01*
X-101115D01*
X-101847Y-90387D01*
X-101929Y-89575D01*
X-99778Y-87424D01*
X-98127Y-84564D01*
X-97272Y-81375D01*
Y-78073D01*
X-98127Y-74884D01*
X-99778Y-72024D01*
X-102113Y-69690D01*
X-104972Y-68039D01*
X-108161Y-67184D01*
X-111463D01*
X-114653Y-68039D01*
X-117512Y-69690D01*
X-119847Y-72024D01*
X-121498Y-74884D01*
X-122352Y-78073D01*
Y-81375D01*
X-121498Y-84564D01*
X-119847Y-87424D01*
X-117695Y-89575D01*
X-117778Y-90387D01*
X-118510Y-92115D01*
X-127927D01*
X-134621Y-85421D01*
X-134127Y-84564D01*
X-133272Y-81375D01*
Y-78073D01*
X-134127Y-74884D01*
X-135778Y-72024D01*
X-138112Y-69690D01*
X-140972Y-68039D01*
X-141927Y-67783D01*
Y-48188D01*
X-142223Y-46701D01*
X-143065Y-45441D01*
X-219641Y31135D01*
X-218960Y33678D01*
Y36322D01*
X-219644Y38875D01*
X-220966Y41165D01*
X-222835Y43034D01*
X-225125Y44356D01*
X-227678Y45040D01*
X-230322D01*
X-232875Y44356D01*
X-235165Y43034D01*
X-237034Y41165D01*
X-238356Y38875D01*
X-239040Y36322D01*
Y33678D01*
X-238356Y31125D01*
X-237034Y28835D01*
X-235165Y26966D01*
X-232875Y25644D01*
X-230322Y24960D01*
X-227678D01*
X-225135Y25641D01*
X-149697Y-49797D01*
Y-67783D01*
X-150652Y-68039D01*
X-153512Y-69690D01*
X-155847Y-72024D01*
X-157498Y-74884D01*
X-158352Y-78073D01*
Y-81375D01*
X-157498Y-84564D01*
X-155847Y-87424D01*
X-153512Y-89759D01*
X-150652Y-91410D01*
X-147463Y-92264D01*
X-144161D01*
X-140972Y-91410D01*
X-140115Y-90915D01*
X-132283Y-98747D01*
X-131023Y-99589D01*
X-129834Y-99825D01*
X-130085Y-102365D01*
X-177083D01*
X-177431Y-102056D01*
X-178571Y-99825D01*
X-178210Y-98953D01*
Y-97047D01*
X-178939Y-95287D01*
X-180287Y-93939D01*
X-182047Y-93210D01*
X-183953D01*
X-185713Y-93939D01*
X-187061Y-95287D01*
X-187790Y-97047D01*
Y-98953D01*
X-187429Y-99825D01*
X-188569Y-102056D01*
X-188916Y-102365D01*
X-194273D01*
X-194907Y-100923D01*
X-195051Y-99825D01*
X-193939Y-98713D01*
X-193210Y-96953D01*
Y-95047D01*
X-193939Y-93287D01*
X-195287Y-91939D01*
X-197047Y-91210D01*
X-198953D01*
X-200713Y-91939D01*
X-202061Y-93287D01*
X-202790Y-95047D01*
Y-96953D01*
X-202061Y-98713D01*
X-200949Y-99825D01*
X-201092Y-100923D01*
X-201727Y-102365D01*
X-225000D01*
X-226487Y-102661D01*
X-226935Y-102961D01*
X-242488Y-102961D01*
X-247422Y-102311D01*
X-252228Y-101024D01*
X-256826Y-99119D01*
X-261135Y-96631D01*
X-265083Y-93602D01*
X-268602Y-90083D01*
X-271631Y-86135D01*
X-274119Y-81826D01*
X-276024Y-77228D01*
X-277311Y-72422D01*
X-277961Y-67488D01*
X-277961Y-65000D01*
X-277961Y55000D01*
X-277961Y57488D01*
X-277311Y62422D01*
X-276024Y67228D01*
X-274119Y71826D01*
X-271631Y76135D01*
X-268602Y80083D01*
X-265083Y83602D01*
X-261135Y86631D01*
X-256826Y89119D01*
X-252228Y91024D01*
X-247422Y92311D01*
X-242488Y92961D01*
X-240000Y92961D01*
X165820Y92961D01*
D02*
G37*
G36*
X-226935Y-127039D02*
X-226487Y-127339D01*
X-225000Y-127635D01*
X165535D01*
X166059Y-127686D01*
X168293Y-129622D01*
X168747Y-133070D01*
X168790Y-133197D01*
X168799Y-133331D01*
X170153Y-138385D01*
X170213Y-138506D01*
X170239Y-138638D01*
X172241Y-143472D01*
X172316Y-143584D01*
X172359Y-143711D01*
X174975Y-148242D01*
X175064Y-148343D01*
X175124Y-148464D01*
X178309Y-152615D01*
X178410Y-152704D01*
X178485Y-152816D01*
X182184Y-156515D01*
X182296Y-156590D01*
X182385Y-156691D01*
X186536Y-159876D01*
X186656Y-159936D01*
X186758Y-160025D01*
X191289Y-162641D01*
X191416Y-162684D01*
X191528Y-162759D01*
X196362Y-164761D01*
X196494Y-164787D01*
X196615Y-164847D01*
X201669Y-166201D01*
X201803Y-166210D01*
X201930Y-166253D01*
X207118Y-166936D01*
X207219Y-166929D01*
X207317Y-166952D01*
X209933Y-167038D01*
X209967Y-167033D01*
X210000Y-167039D01*
X212262D01*
X216697Y-167921D01*
X220876Y-169652D01*
X224637Y-172165D01*
X227835Y-175363D01*
X230348Y-179124D01*
X232079Y-183303D01*
X232961Y-187738D01*
Y-190000D01*
Y-260000D01*
Y-262262D01*
X232079Y-266697D01*
X230348Y-270876D01*
X227835Y-274637D01*
X224637Y-277835D01*
X220876Y-280348D01*
X216697Y-282079D01*
X212262Y-282961D01*
X210000D01*
X209967Y-282968D01*
X209933Y-282962D01*
X207317Y-283048D01*
X207219Y-283071D01*
X207118Y-283064D01*
X201930Y-283747D01*
X201803Y-283790D01*
X201669Y-283799D01*
X196615Y-285153D01*
X196494Y-285213D01*
X196362Y-285239D01*
X191528Y-287241D01*
X191416Y-287316D01*
X191289Y-287359D01*
X186758Y-289975D01*
X186656Y-290064D01*
X186536Y-290124D01*
X182385Y-293309D01*
X182296Y-293410D01*
X182184Y-293485D01*
X178485Y-297184D01*
X178410Y-297296D01*
X178309Y-297385D01*
X175124Y-301536D01*
X175064Y-301656D01*
X174975Y-301758D01*
X172359Y-306289D01*
X172316Y-306416D01*
X172241Y-306528D01*
X170239Y-311362D01*
X170213Y-311494D01*
X170153Y-311615D01*
X168799Y-316669D01*
X168790Y-316803D01*
X168747Y-316930D01*
X168064Y-322118D01*
X165820Y-322961D01*
X-240000Y-322961D01*
X-242488D01*
X-247422Y-322311D01*
X-252228Y-321023D01*
X-256826Y-319119D01*
X-261135Y-316631D01*
X-265083Y-313602D01*
X-268602Y-310083D01*
X-271631Y-306135D01*
X-274119Y-301826D01*
X-276024Y-297228D01*
X-277311Y-292422D01*
X-277961Y-287488D01*
X-277961Y-285000D01*
X-277961Y-165000D01*
X-277961Y-162512D01*
X-277311Y-157578D01*
X-276024Y-152772D01*
X-274119Y-148174D01*
X-271631Y-143865D01*
X-268602Y-139917D01*
X-265083Y-136398D01*
X-261135Y-133369D01*
X-256826Y-130881D01*
X-252228Y-128976D01*
X-247422Y-127689D01*
X-242488Y-127039D01*
X-240000Y-127039D01*
X-226935Y-127039D01*
D02*
G37*
%LPC*%
G36*
X85953Y86790D02*
X84047D01*
X82287Y86061D01*
X80939Y84713D01*
X80210Y82953D01*
Y81047D01*
X80939Y79287D01*
X82287Y77939D01*
X84047Y77210D01*
X85953D01*
X87713Y77939D01*
X89061Y79287D01*
X89790Y81047D01*
Y82953D01*
X89061Y84713D01*
X87713Y86061D01*
X85953Y86790D01*
D02*
G37*
G36*
X40953Y80790D02*
X39047D01*
X37287Y80061D01*
X35939Y78713D01*
X35210Y76953D01*
X33117Y75790D01*
X31357Y75061D01*
X30009Y73713D01*
X29280Y71953D01*
Y70047D01*
X30009Y68287D01*
X31357Y66939D01*
X33117Y66210D01*
X35023D01*
X36783Y66939D01*
X38131Y68287D01*
X38860Y70047D01*
X40953Y71210D01*
X42713Y71939D01*
X43485Y72710D01*
X43686Y72739D01*
X45862Y72361D01*
X46253Y72160D01*
X46614Y71287D01*
X47962Y69939D01*
X49722Y69210D01*
X51628D01*
X53388Y69939D01*
X54736Y71287D01*
X55465Y73047D01*
Y74953D01*
X54736Y76713D01*
X53388Y78061D01*
X51628Y78790D01*
X49722D01*
X47962Y78061D01*
X47190Y77290D01*
X46989Y77261D01*
X44813Y77639D01*
X44422Y77840D01*
X44061Y78713D01*
X42713Y80061D01*
X40953Y80790D01*
D02*
G37*
G36*
X135270Y70659D02*
Y67270D01*
X138659D01*
X138061Y68713D01*
X136713Y70061D01*
X135270Y70659D01*
D02*
G37*
G36*
X132730D02*
X131287Y70061D01*
X129939Y68713D01*
X129341Y67270D01*
X132730D01*
Y70659D01*
D02*
G37*
G36*
X77953Y76790D02*
X76047D01*
X74287Y76061D01*
X72939Y74713D01*
X72210Y72953D01*
Y71047D01*
X72939Y69287D01*
X74287Y67939D01*
X76047Y67210D01*
X77953D01*
X79713Y67939D01*
X81061Y69287D01*
X81790Y71047D01*
Y72953D01*
X81061Y74713D01*
X79713Y76061D01*
X77953Y76790D01*
D02*
G37*
G36*
X4953Y68790D02*
X3047D01*
X1287Y68061D01*
X-61Y66713D01*
X-790Y64953D01*
Y63047D01*
X-61Y61287D01*
X1287Y59939D01*
X3047Y59210D01*
X4953D01*
X6713Y59939D01*
X8061Y61287D01*
X8790Y63047D01*
Y64953D01*
X8061Y66713D01*
X6713Y68061D01*
X4953Y68790D01*
D02*
G37*
G36*
X-45047Y67790D02*
X-46953D01*
X-48713Y67061D01*
X-50061Y65713D01*
X-50790Y63953D01*
Y62047D01*
X-50061Y60287D01*
X-48713Y58939D01*
X-46953Y58210D01*
X-45047D01*
X-43287Y58939D01*
X-41939Y60287D01*
X-41210Y62047D01*
Y63953D01*
X-41939Y65713D01*
X-43287Y67061D01*
X-45047Y67790D01*
D02*
G37*
G36*
X69953Y66790D02*
X68047D01*
X66287Y66061D01*
X64939Y64713D01*
X64210Y62953D01*
Y61047D01*
X64939Y59287D01*
X66287Y57939D01*
X68047Y57210D01*
X69953D01*
X71713Y57939D01*
X73061Y59287D01*
X73790Y61047D01*
Y62953D01*
X73061Y64713D01*
X71713Y66061D01*
X69953Y66790D01*
D02*
G37*
G36*
X138659Y64730D02*
X129341D01*
X129939Y63287D01*
X131089Y62137D01*
X131140Y60832D01*
X130943Y59332D01*
X130287Y59061D01*
X128939Y57713D01*
X128210Y55953D01*
Y54047D01*
X128939Y52287D01*
X130287Y50939D01*
X132047Y50210D01*
X133953D01*
X135713Y50939D01*
X137061Y52287D01*
X137790Y54047D01*
Y55953D01*
X137061Y57713D01*
X135911Y58863D01*
X135859Y60168D01*
X136057Y61667D01*
X136713Y61939D01*
X138061Y63287D01*
X138659Y64730D01*
D02*
G37*
G36*
X-237500Y70163D02*
X-262500D01*
X-264954Y69675D01*
X-267035Y68285D01*
X-268425Y66204D01*
X-268913Y63750D01*
Y56250D01*
X-268425Y53796D01*
X-267035Y51715D01*
X-264954Y50325D01*
X-262500Y49837D01*
X-237500D01*
X-235046Y50325D01*
X-232965Y51715D01*
X-231575Y53796D01*
X-231087Y56250D01*
Y63750D01*
X-231575Y66204D01*
X-232965Y68285D01*
X-235046Y69675D01*
X-237500Y70163D01*
D02*
G37*
G36*
X19708Y52220D02*
Y48832D01*
X23097D01*
X22499Y50275D01*
X21151Y51623D01*
X19708Y52220D01*
D02*
G37*
G36*
X17168D02*
X15725Y51623D01*
X14377Y50275D01*
X13780Y48832D01*
X17168D01*
Y52220D01*
D02*
G37*
G36*
X156953Y53790D02*
X155047D01*
X153287Y53061D01*
X151939Y51713D01*
X151210Y49953D01*
Y48047D01*
X151939Y46287D01*
X153287Y44939D01*
X155047Y44210D01*
X156953D01*
X158713Y44939D01*
X160061Y46287D01*
X160790Y48047D01*
Y49953D01*
X160061Y51713D01*
X158713Y53061D01*
X156953Y53790D01*
D02*
G37*
G36*
X-98047Y52790D02*
X-99953D01*
X-101713Y52061D01*
X-103061Y50713D01*
X-103790Y48953D01*
Y47047D01*
X-103061Y45287D01*
X-101713Y43939D01*
X-99953Y43210D01*
X-98047D01*
X-96287Y43939D01*
X-94939Y45287D01*
X-94210Y47047D01*
Y48953D01*
X-94939Y50713D01*
X-96287Y52061D01*
X-98047Y52790D01*
D02*
G37*
G36*
X23097Y46292D02*
X19708D01*
Y42903D01*
X21151Y43501D01*
X22499Y44848D01*
X23097Y46292D01*
D02*
G37*
G36*
X17168D02*
X13780D01*
X14377Y44848D01*
X15725Y43501D01*
X17168Y42903D01*
Y46292D01*
D02*
G37*
G36*
X-49047Y50790D02*
X-50953D01*
X-52713Y50061D01*
X-54061Y48713D01*
X-54790Y46953D01*
Y45047D01*
X-54061Y43287D01*
X-52713Y41939D01*
X-50953Y41210D01*
X-49047D01*
X-47287Y41939D01*
X-45939Y43287D01*
X-45210Y45047D01*
Y46953D01*
X-45939Y48713D01*
X-47287Y50061D01*
X-49047Y50790D01*
D02*
G37*
G36*
X-10047Y47790D02*
X-11953D01*
X-13713Y47061D01*
X-15061Y45713D01*
X-15790Y43953D01*
Y42047D01*
X-15061Y40287D01*
X-13713Y38939D01*
X-11953Y38210D01*
X-10047D01*
X-8287Y38939D01*
X-6939Y40287D01*
X-6210Y42047D01*
Y43953D01*
X-6939Y45713D01*
X-8287Y47061D01*
X-10047Y47790D01*
D02*
G37*
G36*
X134953Y41790D02*
X133047D01*
X131287Y41061D01*
X129939Y39713D01*
X129210Y37953D01*
Y36047D01*
X129939Y34287D01*
X131287Y32939D01*
X133047Y32210D01*
X134953D01*
X136713Y32939D01*
X138061Y34287D01*
X138790Y36047D01*
Y37953D01*
X138061Y39713D01*
X136713Y41061D01*
X134953Y41790D01*
D02*
G37*
G36*
X63003Y34040D02*
X60998D01*
X59145Y33273D01*
X57500Y32027D01*
X55855Y33273D01*
X54002Y34040D01*
X51997D01*
X50145Y33273D01*
X48500Y32027D01*
X46855Y33273D01*
X45002Y34040D01*
X42997D01*
X41145Y33273D01*
X39500Y32027D01*
X37855Y33273D01*
X36003Y34040D01*
X33997D01*
X32145Y33273D01*
X30500Y32027D01*
X28855Y33273D01*
X27002Y34040D01*
X24997D01*
X23145Y33273D01*
X21727Y31855D01*
X20960Y30003D01*
Y27998D01*
X21727Y26145D01*
X22973Y24500D01*
X21727Y22855D01*
X20960Y21003D01*
Y18997D01*
X21727Y17145D01*
X22973Y15500D01*
X21727Y13855D01*
X20960Y12003D01*
Y9998D01*
X21727Y8145D01*
X22973Y6500D01*
X21727Y4855D01*
X20960Y3002D01*
Y997D01*
X21727Y-855D01*
X22973Y-2500D01*
X21727Y-4145D01*
X20960Y-5997D01*
Y-8002D01*
X21727Y-9855D01*
X23145Y-11273D01*
X24997Y-12040D01*
X27002D01*
X28855Y-11273D01*
X30500Y-10027D01*
X32145Y-11273D01*
X33997Y-12040D01*
X36003D01*
X37855Y-11273D01*
X39500Y-10027D01*
X41145Y-11273D01*
X42997Y-12040D01*
X45002D01*
X46855Y-11273D01*
X48500Y-10027D01*
X50145Y-11273D01*
X51997Y-12040D01*
X54002D01*
X55855Y-11273D01*
X57500Y-10027D01*
X59145Y-11273D01*
X60998Y-12040D01*
X63003D01*
X64855Y-11273D01*
X66273Y-9855D01*
X67040Y-8002D01*
Y-5997D01*
X66273Y-4145D01*
X65027Y-2500D01*
X66273Y-855D01*
X67040Y997D01*
Y3002D01*
X66273Y4855D01*
X65027Y6500D01*
X66273Y8145D01*
X67040Y9998D01*
Y12003D01*
X66273Y13855D01*
X65027Y15500D01*
X66273Y17145D01*
X67040Y18997D01*
Y21003D01*
X66273Y22855D01*
X65027Y24500D01*
X66273Y26145D01*
X67040Y27998D01*
Y30003D01*
X66273Y31855D01*
X64855Y33273D01*
X63003Y34040D01*
D02*
G37*
G36*
X167953Y38790D02*
X166047D01*
X164287Y38061D01*
X162939Y36713D01*
X162210Y34953D01*
Y33047D01*
X162939Y31287D01*
X164287Y29939D01*
X166047Y29210D01*
X167953D01*
X169713Y29939D01*
X171061Y31287D01*
X171790Y33047D01*
Y34953D01*
X171061Y36713D01*
X169713Y38061D01*
X167953Y38790D01*
D02*
G37*
G36*
X101953Y29790D02*
X100047D01*
X98287Y29061D01*
X96939Y27713D01*
X96210Y25953D01*
Y24047D01*
X96939Y22287D01*
X98287Y20939D01*
X100047Y20210D01*
X101953D01*
X103713Y20939D01*
X105061Y22287D01*
X105790Y24047D01*
Y25953D01*
X105061Y27713D01*
X103713Y29061D01*
X101953Y29790D01*
D02*
G37*
G36*
X148953Y26790D02*
X147047D01*
X145287Y26061D01*
X143939Y24713D01*
X143210Y22953D01*
Y21047D01*
X143939Y19287D01*
X145287Y17939D01*
X147047Y17210D01*
X148953D01*
X150713Y17939D01*
X152061Y19287D01*
X152790Y21047D01*
Y22953D01*
X152061Y24713D01*
X150713Y26061D01*
X148953Y26790D01*
D02*
G37*
G36*
X-14047Y10790D02*
X-15953D01*
X-17713Y10061D01*
X-19061Y8713D01*
X-19790Y6953D01*
Y5047D01*
X-19061Y3287D01*
X-17713Y1939D01*
X-15953Y1210D01*
X-14047D01*
X-12287Y1939D01*
X-10939Y3287D01*
X-10210Y5047D01*
Y6953D01*
X-10939Y8713D01*
X-12287Y10061D01*
X-14047Y10790D01*
D02*
G37*
G36*
X-2730Y2659D02*
Y-730D01*
X659D01*
X61Y713D01*
X-1287Y2061D01*
X-2730Y2659D01*
D02*
G37*
G36*
X-5270D02*
X-6713Y2061D01*
X-8061Y713D01*
X-8659Y-730D01*
X-5270D01*
Y2659D01*
D02*
G37*
G36*
X189953Y4790D02*
X188047D01*
X186287Y4061D01*
X184939Y2713D01*
X184210Y953D01*
Y-953D01*
X184939Y-2713D01*
X186287Y-4061D01*
X188047Y-4790D01*
X189953D01*
X191713Y-4061D01*
X193061Y-2713D01*
X193790Y-953D01*
Y953D01*
X193061Y2713D01*
X191713Y4061D01*
X189953Y4790D01*
D02*
G37*
G36*
X659Y-3270D02*
X-2730D01*
Y-6659D01*
X-1287Y-6061D01*
X61Y-4713D01*
X659Y-3270D01*
D02*
G37*
G36*
X-5270D02*
X-8659D01*
X-8061Y-4713D01*
X-6713Y-6061D01*
X-5270Y-6659D01*
Y-3270D01*
D02*
G37*
G36*
X89953Y2790D02*
X88047D01*
X86287Y2061D01*
X84939Y713D01*
X84210Y-1047D01*
Y-2953D01*
X84939Y-4713D01*
X86287Y-6061D01*
X88047Y-6790D01*
X89953D01*
X91713Y-6061D01*
X93061Y-4713D01*
X93790Y-2953D01*
Y-1047D01*
X93061Y713D01*
X91713Y2061D01*
X89953Y2790D01*
D02*
G37*
G36*
X9270Y-10341D02*
Y-13730D01*
X12659D01*
X12061Y-12287D01*
X10713Y-10939D01*
X9270Y-10341D01*
D02*
G37*
G36*
X6730D02*
X5287Y-10939D01*
X3939Y-12287D01*
X3341Y-13730D01*
X6730D01*
Y-10341D01*
D02*
G37*
G36*
X12659Y-16270D02*
X9270D01*
Y-19659D01*
X10713Y-19061D01*
X12061Y-17713D01*
X12659Y-16270D01*
D02*
G37*
G36*
X6730D02*
X3341D01*
X3939Y-17713D01*
X5287Y-19061D01*
X6730Y-19659D01*
Y-16270D01*
D02*
G37*
G36*
X-227678Y20040D02*
X-230322D01*
X-232875Y19356D01*
X-235165Y18034D01*
X-237034Y16165D01*
X-238356Y13875D01*
X-239040Y11322D01*
Y8678D01*
X-238356Y6125D01*
X-237034Y3835D01*
X-235165Y1966D01*
X-234300Y1467D01*
Y-1467D01*
X-235165Y-1966D01*
X-237034Y-3835D01*
X-238356Y-6125D01*
X-239040Y-8678D01*
Y-11322D01*
X-238356Y-13875D01*
X-237034Y-16165D01*
X-235165Y-18034D01*
X-232875Y-19356D01*
X-230322Y-20040D01*
X-227678D01*
X-225125Y-19356D01*
X-222835Y-18034D01*
X-220966Y-16165D01*
X-219644Y-13875D01*
X-218960Y-11322D01*
Y-8678D01*
X-219644Y-6125D01*
X-220966Y-3835D01*
X-222835Y-1966D01*
X-223701Y-1467D01*
Y1467D01*
X-222835Y1966D01*
X-220966Y3835D01*
X-219644Y6125D01*
X-218960Y8678D01*
Y11322D01*
X-219644Y13875D01*
X-220966Y16165D01*
X-222835Y18034D01*
X-225125Y19356D01*
X-227678Y20040D01*
D02*
G37*
G36*
X150953Y-11210D02*
X149047D01*
X147287Y-11939D01*
X145939Y-13287D01*
X145210Y-15047D01*
Y-16953D01*
X145939Y-18713D01*
X147287Y-20061D01*
X149047Y-20790D01*
X150953D01*
X152713Y-20061D01*
X154061Y-18713D01*
X154790Y-16953D01*
Y-15047D01*
X154061Y-13287D01*
X152713Y-11939D01*
X150953Y-11210D01*
D02*
G37*
G36*
X96953Y-16210D02*
X95047D01*
X93287Y-16939D01*
X91939Y-18287D01*
X91210Y-20047D01*
Y-21953D01*
X91939Y-23713D01*
X93287Y-25061D01*
X95047Y-25790D01*
X96953D01*
X98713Y-25061D01*
X100061Y-23713D01*
X100790Y-21953D01*
Y-20047D01*
X100061Y-18287D01*
X98713Y-16939D01*
X96953Y-16210D01*
D02*
G37*
G36*
X77953D02*
X76047D01*
X74287Y-16939D01*
X72939Y-18287D01*
X72210Y-20047D01*
Y-21953D01*
X72939Y-23713D01*
X74287Y-25061D01*
X76047Y-25790D01*
X77953D01*
X79713Y-25061D01*
X81061Y-23713D01*
X81790Y-21953D01*
Y-20047D01*
X81061Y-18287D01*
X79713Y-16939D01*
X77953Y-16210D01*
D02*
G37*
G36*
X-68047Y52790D02*
X-69953D01*
X-71713Y52061D01*
X-73061Y50713D01*
X-73790Y48953D01*
Y47047D01*
X-73061Y45287D01*
X-72885Y45111D01*
Y33000D01*
X-72589Y31513D01*
X-71747Y30253D01*
X-10747Y-30747D01*
X-9487Y-31589D01*
X-8000Y-31885D01*
X8111D01*
X8287Y-32061D01*
X10047Y-32790D01*
X11953D01*
X13713Y-32061D01*
X15061Y-30713D01*
X15790Y-28953D01*
Y-27047D01*
X15061Y-25287D01*
X13713Y-23939D01*
X11953Y-23210D01*
X10047D01*
X8287Y-23939D01*
X8111Y-24115D01*
X-467D01*
X-923Y-23433D01*
Y-21527D01*
X-1653Y-19767D01*
X-3000Y-18419D01*
X-4761Y-17690D01*
X-6666D01*
X-8427Y-18419D01*
X-8594Y-18587D01*
X-11853Y-18653D01*
X-65115Y34609D01*
Y45111D01*
X-64939Y45287D01*
X-64210Y47047D01*
Y48953D01*
X-64939Y50713D01*
X-66287Y52061D01*
X-68047Y52790D01*
D02*
G37*
G36*
X33270Y-32341D02*
Y-35730D01*
X36659D01*
X36061Y-34287D01*
X34713Y-32939D01*
X33270Y-32341D01*
D02*
G37*
G36*
X30730D02*
X29287Y-32939D01*
X27939Y-34287D01*
X27341Y-35730D01*
X30730D01*
Y-32341D01*
D02*
G37*
G36*
X-227678Y-24960D02*
X-230322D01*
X-232875Y-25644D01*
X-235165Y-26966D01*
X-237034Y-28835D01*
X-238356Y-31125D01*
X-239040Y-33678D01*
Y-36322D01*
X-238356Y-38875D01*
X-237034Y-41165D01*
X-235165Y-43034D01*
X-232875Y-44356D01*
X-230322Y-45040D01*
X-227678D01*
X-225125Y-44356D01*
X-222835Y-43034D01*
X-220966Y-41165D01*
X-219644Y-38875D01*
X-218960Y-36322D01*
Y-33678D01*
X-219644Y-31125D01*
X-220966Y-28835D01*
X-222835Y-26966D01*
X-225125Y-25644D01*
X-227678Y-24960D01*
D02*
G37*
G36*
X-212047Y-40210D02*
X-213953D01*
X-215713Y-40939D01*
X-217061Y-42287D01*
X-217790Y-44047D01*
Y-45953D01*
X-217061Y-47713D01*
X-215713Y-49061D01*
X-213953Y-49790D01*
X-212047D01*
X-210287Y-49061D01*
X-208939Y-47713D01*
X-208210Y-45953D01*
Y-44047D01*
X-208939Y-42287D01*
X-210287Y-40939D01*
X-212047Y-40210D01*
D02*
G37*
G36*
X36659Y-38270D02*
X27341D01*
X27939Y-39713D01*
X28671Y-40445D01*
X29055Y-42000D01*
X28671Y-43555D01*
X27939Y-44287D01*
X27210Y-46047D01*
Y-47953D01*
X27939Y-49713D01*
X29287Y-51061D01*
X31047Y-51790D01*
X32953D01*
X34713Y-51061D01*
X36061Y-49713D01*
X36790Y-47953D01*
Y-46047D01*
X36061Y-44287D01*
X35329Y-43555D01*
X34945Y-42000D01*
X35329Y-40445D01*
X36061Y-39713D01*
X36659Y-38270D01*
D02*
G37*
G36*
X209450Y-33547D02*
X195950D01*
X193691Y-33996D01*
X191776Y-35276D01*
X190496Y-37191D01*
X190047Y-39450D01*
Y-45950D01*
X190496Y-48209D01*
X191776Y-50124D01*
X193691Y-51404D01*
X195950Y-51853D01*
X209450D01*
X211709Y-51404D01*
X213624Y-50124D01*
X214904Y-48209D01*
X215353Y-45950D01*
Y-39450D01*
X214904Y-37191D01*
X213624Y-35276D01*
X211709Y-33996D01*
X209450Y-33547D01*
D02*
G37*
G36*
X107953Y-24210D02*
X106047D01*
X104287Y-24939D01*
X102939Y-26287D01*
X102210Y-28047D01*
Y-29953D01*
X102939Y-31713D01*
X104287Y-33061D01*
X106047Y-33790D01*
X107953D01*
X108899Y-33398D01*
X110417Y-34794D01*
X110771Y-35322D01*
X109960Y-38349D01*
Y-41651D01*
X110815Y-44840D01*
X112465Y-47700D01*
X114800Y-50034D01*
X117660Y-51685D01*
X120849Y-52540D01*
X124151D01*
X127340Y-51685D01*
X130200Y-50034D01*
X132535Y-47700D01*
X134185Y-44840D01*
X135040Y-41651D01*
Y-38349D01*
X134185Y-35160D01*
X132535Y-32300D01*
X130200Y-29966D01*
X127340Y-28315D01*
X124151Y-27460D01*
X120849D01*
X117660Y-28315D01*
X114800Y-29966D01*
X114137Y-30629D01*
X113436Y-30427D01*
X111790Y-29384D01*
Y-28047D01*
X111061Y-26287D01*
X109713Y-24939D01*
X107953Y-24210D01*
D02*
G37*
G36*
X62953Y-45210D02*
X61047D01*
X59287Y-45939D01*
X57939Y-47287D01*
X57210Y-49047D01*
Y-50953D01*
X57939Y-52713D01*
X59287Y-54061D01*
X61047Y-54790D01*
X62953D01*
X64713Y-54061D01*
X66061Y-52713D01*
X66790Y-50953D01*
Y-49047D01*
X66061Y-47287D01*
X64713Y-45939D01*
X62953Y-45210D01*
D02*
G37*
G36*
X-237500Y-49837D02*
X-262500D01*
X-264954Y-50325D01*
X-267035Y-51715D01*
X-268425Y-53796D01*
X-268913Y-56250D01*
Y-63750D01*
X-268425Y-66204D01*
X-267035Y-68285D01*
X-264954Y-69675D01*
X-262500Y-70163D01*
X-237500D01*
X-235046Y-69675D01*
X-232965Y-68285D01*
X-231575Y-66204D01*
X-231087Y-63750D01*
Y-56250D01*
X-231575Y-53796D01*
X-232965Y-51715D01*
X-235046Y-50325D01*
X-237500Y-49837D01*
D02*
G37*
G36*
X-29161Y-67184D02*
X-29542D01*
Y-78454D01*
X-18272D01*
Y-78073D01*
X-19127Y-74884D01*
X-20778Y-72024D01*
X-23112Y-69690D01*
X-25972Y-68039D01*
X-29161Y-67184D01*
D02*
G37*
G36*
X-32082D02*
X-32463D01*
X-35652Y-68039D01*
X-38512Y-69690D01*
X-40847Y-72024D01*
X-42498Y-74884D01*
X-43352Y-78073D01*
Y-78454D01*
X-32082D01*
Y-67184D01*
D02*
G37*
G36*
X51651Y-57460D02*
X48349D01*
X45160Y-58315D01*
X42300Y-59966D01*
X39966Y-62300D01*
X38315Y-65160D01*
X37460Y-68349D01*
Y-71651D01*
X38315Y-74840D01*
X39966Y-77700D01*
X42300Y-80035D01*
X45160Y-81685D01*
X48349Y-82540D01*
X51651D01*
X54840Y-81685D01*
X57700Y-80035D01*
X60034Y-77700D01*
X61685Y-74840D01*
X62540Y-71651D01*
Y-68349D01*
X61685Y-65160D01*
X60034Y-62300D01*
X57700Y-59966D01*
X54840Y-58315D01*
X51651Y-57460D01*
D02*
G37*
G36*
X-67159Y-137740D02*
X-70461D01*
X-73650Y-138595D01*
X-76510Y-140246D01*
X-78844Y-142580D01*
X-80495Y-145440D01*
X-80751Y-146395D01*
X-91043D01*
X-92530Y-146691D01*
X-93790Y-147533D01*
X-94906Y-148649D01*
X-97525Y-147676D01*
X-98125Y-145440D01*
X-99775Y-142580D01*
X-102110Y-140246D01*
X-104970Y-138595D01*
X-108159Y-137740D01*
X-111461D01*
X-114650Y-138595D01*
X-117510Y-140246D01*
X-119845Y-142580D01*
X-121495Y-145440D01*
X-122350Y-148629D01*
Y-151931D01*
X-121495Y-155120D01*
X-119845Y-157980D01*
X-117510Y-160315D01*
X-117058Y-160575D01*
X-117739Y-163115D01*
X-137881D01*
X-138562Y-160575D01*
X-138110Y-160315D01*
X-135775Y-157980D01*
X-134125Y-155120D01*
X-133270Y-151931D01*
Y-148629D01*
X-134125Y-145440D01*
X-135775Y-142580D01*
X-138110Y-140246D01*
X-140970Y-138595D01*
X-144159Y-137740D01*
X-147461D01*
X-150650Y-138595D01*
X-153510Y-140246D01*
X-155844Y-142580D01*
X-157495Y-145440D01*
X-157752Y-146395D01*
X-179280D01*
X-180767Y-146691D01*
X-182027Y-147533D01*
X-245747Y-211253D01*
X-246589Y-212513D01*
X-246885Y-214000D01*
Y-258111D01*
X-247061Y-258287D01*
X-247790Y-260047D01*
Y-261953D01*
X-247061Y-263713D01*
X-245713Y-265061D01*
X-243953Y-265790D01*
X-242047D01*
X-240287Y-265061D01*
X-238939Y-263713D01*
X-238210Y-261953D01*
Y-260047D01*
X-238939Y-258287D01*
X-239115Y-258111D01*
Y-215609D01*
X-177671Y-154165D01*
X-157752D01*
X-157495Y-155120D01*
X-155844Y-157980D01*
X-153510Y-160315D01*
X-152851Y-160695D01*
X-153293Y-163372D01*
X-153487Y-163411D01*
X-154747Y-164253D01*
X-196704Y-206210D01*
X-196953D01*
X-198713Y-206939D01*
X-200061Y-208287D01*
X-200790Y-210047D01*
Y-211953D01*
X-200061Y-213713D01*
X-198713Y-215061D01*
X-196953Y-215790D01*
X-195047D01*
X-193287Y-215061D01*
X-191939Y-213713D01*
X-191210Y-211953D01*
Y-211704D01*
X-172027Y-192521D01*
X-171061Y-192713D01*
X-169713Y-194061D01*
X-167953Y-194790D01*
X-166047D01*
X-164287Y-194061D01*
X-162939Y-192713D01*
X-162210Y-190953D01*
Y-189047D01*
X-162939Y-187287D01*
X-163070Y-187156D01*
X-163310Y-183804D01*
X-150391Y-170885D01*
X-122355D01*
X-121102Y-173425D01*
X-121333Y-173725D01*
X-122143Y-175681D01*
X-122419Y-177780D01*
Y-188780D01*
X-122143Y-190879D01*
X-121333Y-192835D01*
X-120044Y-194514D01*
X-118365Y-195803D01*
X-117733Y-196064D01*
X-117415Y-196277D01*
X-117040Y-196352D01*
X-116409Y-196613D01*
X-114310Y-196889D01*
X-85310D01*
X-83211Y-196613D01*
X-81255Y-195803D01*
X-79576Y-194514D01*
X-78287Y-192835D01*
X-77477Y-190879D01*
X-77201Y-188780D01*
Y-177780D01*
X-77477Y-175681D01*
X-78287Y-173725D01*
X-79576Y-172046D01*
X-81255Y-170757D01*
X-83211Y-169947D01*
X-85310Y-169671D01*
X-101622D01*
X-102594Y-167324D01*
X-89434Y-154165D01*
X-80751D01*
X-80495Y-155120D01*
X-78844Y-157980D01*
X-76510Y-160315D01*
X-73650Y-161965D01*
X-70461Y-162820D01*
X-70260D01*
Y-207115D01*
X-74000D01*
X-75487Y-207411D01*
X-76747Y-208253D01*
X-82704Y-214210D01*
X-82953D01*
X-84713Y-214939D01*
X-86061Y-216287D01*
X-86790Y-218047D01*
Y-219953D01*
X-86061Y-221713D01*
X-84713Y-223061D01*
X-82953Y-223790D01*
X-81047D01*
X-79287Y-223061D01*
X-77939Y-221713D01*
X-77210Y-219953D01*
Y-219704D01*
X-73101Y-215594D01*
X-70344Y-215763D01*
X-69713Y-217939D01*
X-71061Y-219287D01*
X-71790Y-221047D01*
Y-222953D01*
X-71061Y-224713D01*
X-69713Y-226061D01*
X-67953Y-226790D01*
X-66047D01*
X-64287Y-226061D01*
X-62939Y-224713D01*
X-62210Y-222953D01*
Y-221047D01*
X-62939Y-219287D01*
X-64089Y-218137D01*
X-64141Y-216832D01*
X-63943Y-215333D01*
X-63287Y-215061D01*
X-61939Y-213713D01*
X-61210Y-211953D01*
Y-210047D01*
X-61939Y-208287D01*
X-62490Y-207736D01*
Y-161111D01*
X-61110Y-160315D01*
X-58776Y-157980D01*
X-57440Y-155667D01*
X-55506Y-155155D01*
X-54510Y-155177D01*
X-43553Y-166134D01*
X-43713Y-166939D01*
X-45061Y-168287D01*
X-45790Y-170047D01*
Y-171953D01*
X-45262Y-173227D01*
X-45061Y-173713D01*
X-45022Y-173885D01*
X-46785Y-175733D01*
X-48047Y-175210D01*
X-49953D01*
X-51713Y-175939D01*
X-53061Y-177287D01*
X-53790Y-179047D01*
Y-180953D01*
X-53061Y-182713D01*
X-51713Y-184061D01*
X-49953Y-184790D01*
X-49704D01*
X-42885Y-191609D01*
Y-231111D01*
X-43061Y-231287D01*
X-43790Y-233047D01*
Y-234953D01*
X-43061Y-236713D01*
X-41713Y-238061D01*
X-41545Y-238131D01*
X-42050Y-240671D01*
X-55310D01*
X-57409Y-240947D01*
X-59365Y-241757D01*
X-61044Y-243046D01*
X-62333Y-244725D01*
X-63143Y-246681D01*
X-63419Y-248780D01*
Y-259780D01*
X-63143Y-261879D01*
X-62333Y-263835D01*
X-61044Y-265514D01*
X-59365Y-266803D01*
X-57409Y-267613D01*
X-55310Y-267889D01*
X-26310D01*
X-24211Y-267613D01*
X-22255Y-266803D01*
X-20576Y-265514D01*
X-19287Y-263835D01*
X-18477Y-261879D01*
X-18201Y-259780D01*
Y-248780D01*
X-18477Y-246681D01*
X-19287Y-244725D01*
X-20576Y-243046D01*
X-22255Y-241757D01*
X-24211Y-240947D01*
X-26310Y-240671D01*
X-35950D01*
X-36455Y-238131D01*
X-36287Y-238061D01*
X-34939Y-236713D01*
X-34210Y-234953D01*
Y-233047D01*
X-34939Y-231287D01*
X-35115Y-231111D01*
Y-190000D01*
X-35411Y-188513D01*
X-36253Y-187253D01*
X-44210Y-179296D01*
Y-179047D01*
X-44738Y-177773D01*
X-44939Y-177287D01*
X-44978Y-177115D01*
X-43215Y-175267D01*
X-41953Y-175790D01*
X-40047D01*
X-38287Y-175061D01*
X-38253Y-175027D01*
X-34860Y-174827D01*
X-31429Y-178258D01*
Y-195262D01*
X-31133Y-196749D01*
X-30291Y-198009D01*
X-19885Y-208416D01*
Y-233111D01*
X-20061Y-233287D01*
X-20790Y-235047D01*
Y-236953D01*
X-20061Y-238713D01*
X-18713Y-240061D01*
X-16953Y-240790D01*
X-15047D01*
X-13287Y-240061D01*
X-11939Y-238713D01*
X-11210Y-236953D01*
Y-235047D01*
X-11939Y-233287D01*
X-12115Y-233111D01*
Y-219503D01*
X-9769Y-218531D01*
X15066Y-243366D01*
X14956Y-245046D01*
X13667Y-246725D01*
X12857Y-248681D01*
X12581Y-250780D01*
Y-279780D01*
X12857Y-281879D01*
X13667Y-283835D01*
X14956Y-285514D01*
X16635Y-286803D01*
X18591Y-287613D01*
X20690Y-287889D01*
X31690D01*
X33789Y-287613D01*
X35745Y-286803D01*
X37424Y-285514D01*
X38713Y-283835D01*
X39523Y-281879D01*
X39799Y-279780D01*
Y-250780D01*
X39523Y-248681D01*
X39417Y-248425D01*
X41114Y-245885D01*
X121111D01*
X121287Y-246061D01*
X123047Y-246790D01*
X124953D01*
X126713Y-246061D01*
X128061Y-244713D01*
X128790Y-242953D01*
Y-241047D01*
X128061Y-239287D01*
X126713Y-237939D01*
X124953Y-237210D01*
X123047D01*
X121287Y-237939D01*
X121111Y-238115D01*
X83976D01*
X83471Y-235575D01*
X84713Y-235061D01*
X86061Y-233713D01*
X86790Y-231953D01*
Y-230047D01*
X86061Y-228287D01*
X84713Y-226939D01*
X82953Y-226210D01*
X81047D01*
X79287Y-226939D01*
X77939Y-228287D01*
X77210Y-230047D01*
Y-231953D01*
X77939Y-233713D01*
X79287Y-235061D01*
X80529Y-235575D01*
X80024Y-238115D01*
X51567D01*
X50790Y-236953D01*
Y-235047D01*
X50061Y-233287D01*
X48713Y-231939D01*
X46953Y-231210D01*
X45047D01*
X43287Y-231939D01*
X41939Y-233287D01*
X41210Y-235047D01*
Y-236953D01*
X40433Y-238115D01*
X20803D01*
X-12447Y-204866D01*
X-12287Y-204061D01*
X-10939Y-202713D01*
X-10210Y-200953D01*
Y-199047D01*
X-10939Y-197287D01*
X-12287Y-195939D01*
X-14047Y-195210D01*
X-15953D01*
X-17713Y-195939D01*
X-17747Y-195973D01*
X-21140Y-196173D01*
X-23660Y-193653D01*
Y-176649D01*
X-23955Y-175163D01*
X-24797Y-173902D01*
X-33539Y-165161D01*
X-32655Y-163241D01*
X-32288Y-162820D01*
X-32080D01*
Y-151550D01*
X-43350D01*
Y-151758D01*
X-43771Y-152125D01*
X-45691Y-153009D01*
X-51167Y-147533D01*
X-52427Y-146691D01*
X-53913Y-146395D01*
X-56869D01*
X-57125Y-145440D01*
X-58776Y-142580D01*
X-61110Y-140246D01*
X-63970Y-138595D01*
X-67159Y-137740D01*
D02*
G37*
G36*
X-29159D02*
X-29540D01*
Y-149010D01*
X-18270D01*
Y-148629D01*
X-19125Y-145440D01*
X-20775Y-142580D01*
X-23110Y-140246D01*
X-25970Y-138595D01*
X-29159Y-137740D01*
D02*
G37*
G36*
X-32080D02*
X-32461D01*
X-35650Y-138595D01*
X-38510Y-140246D01*
X-40844Y-142580D01*
X-42495Y-145440D01*
X-43350Y-148629D01*
Y-149010D01*
X-32080D01*
Y-137740D01*
D02*
G37*
G36*
X-2047Y-147210D02*
X-3953D01*
X-5713Y-147939D01*
X-7061Y-149287D01*
X-7790Y-151047D01*
Y-152953D01*
X-7061Y-154713D01*
X-5713Y-156061D01*
X-3953Y-156790D01*
X-2047D01*
X-287Y-156061D01*
X1061Y-154713D01*
X1790Y-152953D01*
Y-151047D01*
X1061Y-149287D01*
X-287Y-147939D01*
X-2047Y-147210D01*
D02*
G37*
G36*
X-18270Y-151550D02*
X-29540D01*
Y-162820D01*
X-29159D01*
X-25970Y-161965D01*
X-23110Y-160315D01*
X-20775Y-157980D01*
X-19125Y-155120D01*
X-18270Y-151931D01*
Y-151550D01*
D02*
G37*
G36*
X15270Y-160341D02*
Y-163730D01*
X18659D01*
X18061Y-162287D01*
X16713Y-160939D01*
X15270Y-160341D01*
D02*
G37*
G36*
X12730D02*
X11287Y-160939D01*
X9939Y-162287D01*
X9341Y-163730D01*
X12730D01*
Y-160341D01*
D02*
G37*
G36*
X18659Y-166270D02*
X15270D01*
Y-169659D01*
X16713Y-169061D01*
X18061Y-167713D01*
X18659Y-166270D01*
D02*
G37*
G36*
X12730D02*
X9341D01*
X9939Y-167713D01*
X11287Y-169061D01*
X12730Y-169659D01*
Y-166270D01*
D02*
G37*
G36*
X52841Y-147740D02*
X49539D01*
X46350Y-148595D01*
X43490Y-150246D01*
X41156Y-152580D01*
X39505Y-155440D01*
X38650Y-158629D01*
Y-161931D01*
X39505Y-165120D01*
X41156Y-167980D01*
X43490Y-170315D01*
X46350Y-171965D01*
X49539Y-172820D01*
X52841D01*
X56030Y-171965D01*
X58890Y-170315D01*
X61224Y-167980D01*
X62875Y-165120D01*
X63730Y-161931D01*
Y-158629D01*
X62875Y-155440D01*
X61224Y-152580D01*
X58890Y-150246D01*
X56030Y-148595D01*
X52841Y-147740D01*
D02*
G37*
G36*
X139270Y-173341D02*
Y-176730D01*
X142659D01*
X142061Y-175287D01*
X140713Y-173939D01*
X139270Y-173341D01*
D02*
G37*
G36*
X136730D02*
X135287Y-173939D01*
X133939Y-175287D01*
X133341Y-176730D01*
X136730D01*
Y-173341D01*
D02*
G37*
G36*
X220690Y-176671D02*
X191690D01*
X189591Y-176947D01*
X187635Y-177757D01*
X185956Y-179046D01*
X184667Y-180725D01*
X184225Y-181793D01*
X183426Y-181877D01*
X181580Y-181541D01*
X181061Y-180287D01*
X179713Y-178939D01*
X177953Y-178210D01*
X176047D01*
X174287Y-178939D01*
X172939Y-180287D01*
X172210Y-182047D01*
Y-183953D01*
X172939Y-185713D01*
X174287Y-187061D01*
X176047Y-187790D01*
X177953D01*
X179713Y-187061D01*
X181041Y-185733D01*
X181158Y-185735D01*
X183581Y-186267D01*
Y-195780D01*
X183857Y-197879D01*
X184667Y-199835D01*
X185956Y-201514D01*
X187635Y-202803D01*
X189591Y-203613D01*
X191690Y-203889D01*
X220690D01*
X222789Y-203613D01*
X224745Y-202803D01*
X226424Y-201514D01*
X227713Y-199835D01*
X228523Y-197879D01*
X228799Y-195780D01*
Y-184780D01*
X228523Y-182681D01*
X227713Y-180725D01*
X226424Y-179046D01*
X224745Y-177757D01*
X222789Y-176947D01*
X220690Y-176671D01*
D02*
G37*
G36*
X142659Y-179270D02*
X139270D01*
Y-182659D01*
X140713Y-182061D01*
X142061Y-180713D01*
X142659Y-179270D01*
D02*
G37*
G36*
X125341Y-177740D02*
X122039D01*
X118850Y-178595D01*
X115990Y-180245D01*
X113656Y-182580D01*
X112005Y-185440D01*
X111150Y-188629D01*
Y-191931D01*
X112005Y-195120D01*
X113656Y-197980D01*
X115990Y-200315D01*
X118850Y-201965D01*
X122039Y-202820D01*
X125341D01*
X128530Y-201965D01*
X131390Y-200315D01*
X133724Y-197980D01*
X135375Y-195120D01*
X136230Y-191931D01*
Y-188629D01*
X135375Y-185440D01*
X134925Y-184660D01*
X136694Y-182644D01*
X136730Y-182659D01*
Y-179270D01*
X132392D01*
X132336Y-179324D01*
X130872Y-179947D01*
X128530Y-178595D01*
X125341Y-177740D01*
D02*
G37*
G36*
X51953Y-183210D02*
X50047D01*
X48287Y-183939D01*
X48111Y-184115D01*
X13000D01*
X11513Y-184411D01*
X10253Y-185253D01*
X296Y-195210D01*
X47D01*
X-1713Y-195939D01*
X-3061Y-197287D01*
X-3790Y-199047D01*
Y-200953D01*
X-3061Y-202713D01*
X-1713Y-204061D01*
X47Y-204790D01*
X1953D01*
X3713Y-204061D01*
X5061Y-202713D01*
X5790Y-200953D01*
Y-200704D01*
X14609Y-191885D01*
X48111D01*
X48287Y-192061D01*
X50047Y-192790D01*
X51953D01*
X53713Y-192061D01*
X55061Y-190713D01*
X55790Y-188953D01*
Y-187047D01*
X55061Y-185287D01*
X53713Y-183939D01*
X51953Y-183210D01*
D02*
G37*
G36*
X-142047Y-195210D02*
X-143953D01*
X-145713Y-195939D01*
X-147061Y-197287D01*
X-147790Y-199047D01*
Y-200953D01*
X-147061Y-202713D01*
X-145713Y-204061D01*
X-143953Y-204790D01*
X-142047D01*
X-140287Y-204061D01*
X-138939Y-202713D01*
X-138210Y-200953D01*
Y-199047D01*
X-138939Y-197287D01*
X-140287Y-195939D01*
X-142047Y-195210D01*
D02*
G37*
G36*
X21953Y-196210D02*
X20047D01*
X18287Y-196939D01*
X16939Y-198287D01*
X16210Y-200047D01*
Y-201953D01*
X16939Y-203713D01*
X18287Y-205061D01*
X20047Y-205790D01*
X21953D01*
X23713Y-205061D01*
X25061Y-203713D01*
X25790Y-201953D01*
Y-200047D01*
X25061Y-198287D01*
X23713Y-196939D01*
X21953Y-196210D01*
D02*
G37*
G36*
X96690Y-167671D02*
X85690D01*
X83591Y-167947D01*
X81635Y-168757D01*
X79956Y-170046D01*
X78667Y-171725D01*
X77857Y-173681D01*
X77581Y-175780D01*
Y-204780D01*
X77857Y-206879D01*
X78667Y-208835D01*
X79956Y-210514D01*
X81635Y-211803D01*
X83591Y-212613D01*
X85690Y-212889D01*
X96690D01*
X98789Y-212613D01*
X100745Y-211803D01*
X102424Y-210514D01*
X103713Y-208835D01*
X104523Y-206879D01*
X104799Y-204780D01*
Y-175780D01*
X104523Y-173681D01*
X103713Y-171725D01*
X102424Y-170046D01*
X100745Y-168757D01*
X98789Y-167947D01*
X96690Y-167671D01*
D02*
G37*
G36*
X167953Y-204210D02*
X166047D01*
X164287Y-204939D01*
X162939Y-206287D01*
X162210Y-208047D01*
Y-209953D01*
X162939Y-211713D01*
X164287Y-213061D01*
X166047Y-213790D01*
X167953D01*
X169713Y-213061D01*
X171061Y-211713D01*
X171790Y-209953D01*
Y-208047D01*
X171061Y-206287D01*
X169713Y-204939D01*
X167953Y-204210D01*
D02*
G37*
G36*
X-115047Y-201210D02*
X-116953D01*
X-118713Y-201939D01*
X-120061Y-203287D01*
X-120790Y-205047D01*
Y-206953D01*
X-120776Y-206986D01*
X-120885Y-207530D01*
Y-214749D01*
X-123287Y-215939D01*
X-124730Y-215341D01*
Y-220000D01*
Y-224659D01*
X-123287Y-224061D01*
X-120885Y-225251D01*
Y-272000D01*
X-120589Y-273487D01*
X-119747Y-274747D01*
X-88747Y-305747D01*
X-87487Y-306589D01*
X-86000Y-306885D01*
X38111D01*
X38287Y-307061D01*
X40047Y-307790D01*
X41953D01*
X43713Y-307061D01*
X45061Y-305713D01*
X45790Y-303953D01*
Y-302047D01*
X45061Y-300287D01*
X43713Y-298939D01*
X41953Y-298210D01*
X40047D01*
X38287Y-298939D01*
X38111Y-299115D01*
X-84391D01*
X-113115Y-270391D01*
Y-267894D01*
X-110575Y-266641D01*
X-110365Y-266803D01*
X-108409Y-267613D01*
X-106310Y-267889D01*
X-93080D01*
Y-254280D01*
Y-240671D01*
X-106310D01*
X-108409Y-240947D01*
X-110365Y-241757D01*
X-110575Y-241919D01*
X-113115Y-240666D01*
Y-209889D01*
X-111939Y-208713D01*
X-111210Y-206953D01*
Y-205047D01*
X-111939Y-203287D01*
X-113287Y-201939D01*
X-115047Y-201210D01*
D02*
G37*
G36*
X-127270Y-215341D02*
X-128713Y-215939D01*
X-130061Y-217287D01*
X-130659Y-218730D01*
X-127270D01*
Y-215341D01*
D02*
G37*
G36*
X-100047Y-209210D02*
X-101953D01*
X-103713Y-209939D01*
X-105061Y-211287D01*
X-105790Y-213047D01*
Y-214953D01*
X-105061Y-216713D01*
X-103713Y-218061D01*
X-101953Y-218790D01*
X-100047D01*
X-98287Y-218061D01*
X-96939Y-216713D01*
X-96210Y-214953D01*
Y-213047D01*
X-96939Y-211287D01*
X-98287Y-209939D01*
X-100047Y-209210D01*
D02*
G37*
G36*
X206270Y-220341D02*
Y-223730D01*
X209659D01*
X209061Y-222287D01*
X207713Y-220939D01*
X206270Y-220341D01*
D02*
G37*
G36*
X203730D02*
X202287Y-220939D01*
X200939Y-222287D01*
X200341Y-223730D01*
X203730D01*
Y-220341D01*
D02*
G37*
G36*
X-127270Y-221270D02*
X-130659D01*
X-130061Y-222713D01*
X-128713Y-224061D01*
X-127270Y-224659D01*
Y-221270D01*
D02*
G37*
G36*
X193953Y-217210D02*
X192047D01*
X190287Y-217939D01*
X188939Y-219287D01*
X188210Y-221047D01*
Y-222953D01*
X188939Y-224713D01*
X190287Y-226061D01*
X192047Y-226790D01*
X193953D01*
X195713Y-226061D01*
X197061Y-224713D01*
X197790Y-222953D01*
Y-221047D01*
X197061Y-219287D01*
X195713Y-217939D01*
X193953Y-217210D01*
D02*
G37*
G36*
X209659Y-226270D02*
X206270D01*
Y-229659D01*
X207713Y-229061D01*
X209061Y-227713D01*
X209659Y-226270D01*
D02*
G37*
G36*
X203730D02*
X200341D01*
X200939Y-227713D01*
X202287Y-229061D01*
X203730Y-229659D01*
Y-226270D01*
D02*
G37*
G36*
X96953Y-221210D02*
X95047D01*
X93287Y-221939D01*
X91939Y-223287D01*
X91210Y-225047D01*
Y-226953D01*
X91939Y-228713D01*
X93287Y-230061D01*
X95047Y-230790D01*
X96953D01*
X98713Y-230061D01*
X100061Y-228713D01*
X100790Y-226953D01*
Y-225047D01*
X100061Y-223287D01*
X98713Y-221939D01*
X96953Y-221210D01*
D02*
G37*
G36*
X-230047Y-226210D02*
X-231953D01*
X-233713Y-226939D01*
X-235061Y-228287D01*
X-235790Y-230047D01*
Y-231953D01*
X-235061Y-233713D01*
X-233713Y-235061D01*
X-231953Y-235790D01*
X-230047D01*
X-228287Y-235061D01*
X-226939Y-233713D01*
X-226210Y-231953D01*
Y-230047D01*
X-226939Y-228287D01*
X-228287Y-226939D01*
X-230047Y-226210D01*
D02*
G37*
G36*
X151953Y-223210D02*
X150047D01*
X148287Y-223939D01*
X146939Y-225287D01*
X146210Y-227047D01*
Y-228953D01*
X146939Y-230713D01*
X148287Y-232061D01*
X150047Y-232790D01*
X151953D01*
X153713Y-232061D01*
X153889Y-231885D01*
X157861D01*
X159409Y-233433D01*
X159939Y-234713D01*
X161287Y-236061D01*
X163047Y-236790D01*
X164953D01*
X166713Y-236061D01*
X168061Y-234713D01*
X168790Y-232953D01*
Y-231047D01*
X168061Y-229287D01*
X166713Y-227939D01*
X164953Y-227210D01*
X164173D01*
X162216Y-225253D01*
X160956Y-224411D01*
X159470Y-224115D01*
X153889D01*
X153713Y-223939D01*
X151953Y-223210D01*
D02*
G37*
G36*
X-202047Y-235210D02*
X-203953D01*
X-205713Y-235939D01*
X-207061Y-237287D01*
X-207790Y-239047D01*
Y-240953D01*
X-207061Y-242713D01*
X-205713Y-244061D01*
X-203953Y-244790D01*
X-202047D01*
X-199866Y-244947D01*
X-199280Y-246184D01*
X-199061Y-246713D01*
X-197713Y-248061D01*
X-195953Y-248790D01*
X-194047D01*
X-192287Y-248061D01*
X-190939Y-246713D01*
X-190210Y-244953D01*
Y-243047D01*
X-190939Y-241287D01*
X-192287Y-239939D01*
X-194047Y-239210D01*
X-195953D01*
X-198134Y-239053D01*
X-198720Y-237816D01*
X-198939Y-237287D01*
X-200287Y-235939D01*
X-202047Y-235210D01*
D02*
G37*
G36*
X169953Y-246210D02*
X168047D01*
X166287Y-246939D01*
X164939Y-248287D01*
X164409Y-249567D01*
X162861Y-251115D01*
X147889D01*
X147713Y-250939D01*
X145953Y-250210D01*
X144047D01*
X142287Y-250939D01*
X140939Y-252287D01*
X140210Y-254047D01*
Y-255953D01*
X140939Y-257713D01*
X142287Y-259061D01*
X144047Y-259790D01*
X145953D01*
X147713Y-259061D01*
X147889Y-258885D01*
X164470D01*
X165956Y-258589D01*
X167216Y-257747D01*
X169173Y-255790D01*
X169953D01*
X171713Y-255061D01*
X173061Y-253713D01*
X173790Y-251953D01*
Y-250047D01*
X173061Y-248287D01*
X171713Y-246939D01*
X169953Y-246210D01*
D02*
G37*
G36*
X-77310Y-240671D02*
X-90540D01*
Y-253010D01*
X-69201D01*
Y-248780D01*
X-69477Y-246681D01*
X-70287Y-244725D01*
X-71576Y-243046D01*
X-73255Y-241757D01*
X-75211Y-240947D01*
X-77310Y-240671D01*
D02*
G37*
G36*
X51953Y-255210D02*
X50047D01*
X48287Y-255939D01*
X46939Y-257287D01*
X46210Y-259047D01*
Y-260953D01*
X46939Y-262713D01*
X48287Y-264061D01*
X50047Y-264790D01*
X51953D01*
X53713Y-264061D01*
X55061Y-262713D01*
X55790Y-260953D01*
Y-259047D01*
X55061Y-257287D01*
X53713Y-255939D01*
X51953Y-255210D01*
D02*
G37*
G36*
X-69201Y-255550D02*
X-90540D01*
Y-267889D01*
X-77310D01*
X-75211Y-267613D01*
X-73255Y-266803D01*
X-71576Y-265514D01*
X-70287Y-263835D01*
X-69477Y-261879D01*
X-69201Y-259780D01*
Y-255550D01*
D02*
G37*
G36*
X209953Y-262210D02*
X208047D01*
X206287Y-262939D01*
X204939Y-264287D01*
X204210Y-266047D01*
Y-267953D01*
X204939Y-269713D01*
X206287Y-271061D01*
X208047Y-271790D01*
X209953D01*
X211713Y-271061D01*
X213061Y-269713D01*
X213790Y-267953D01*
Y-266047D01*
X213061Y-264287D01*
X211713Y-262939D01*
X209953Y-262210D01*
D02*
G37*
G36*
X-152047Y-286210D02*
X-153953D01*
X-155713Y-286939D01*
X-157061Y-288287D01*
X-157790Y-290047D01*
Y-291953D01*
X-157061Y-293713D01*
X-155713Y-295061D01*
X-153953Y-295790D01*
X-152047D01*
X-150287Y-295061D01*
X-148939Y-293713D01*
X-148210Y-291953D01*
Y-290047D01*
X-148939Y-288287D01*
X-150287Y-286939D01*
X-152047Y-286210D01*
D02*
G37*
G36*
X160953Y-290210D02*
X159047D01*
X157287Y-290939D01*
X155939Y-292287D01*
X155210Y-294047D01*
Y-295953D01*
X155939Y-297713D01*
X157287Y-299061D01*
X159047Y-299790D01*
X160953D01*
X162713Y-299061D01*
X164061Y-297713D01*
X164790Y-295953D01*
Y-294047D01*
X164061Y-292287D01*
X162713Y-290939D01*
X160953Y-290210D01*
D02*
G37*
G36*
X-178310Y-257671D02*
X-189310D01*
X-191409Y-257947D01*
X-193365Y-258757D01*
X-195044Y-260046D01*
X-196333Y-261725D01*
X-197143Y-263681D01*
X-197419Y-265780D01*
Y-294780D01*
X-197143Y-296879D01*
X-196333Y-298835D01*
X-195044Y-300514D01*
X-193365Y-301803D01*
X-191409Y-302613D01*
X-189310Y-302889D01*
X-178310D01*
X-176211Y-302613D01*
X-174255Y-301803D01*
X-172576Y-300514D01*
X-171287Y-298835D01*
X-170477Y-296879D01*
X-170201Y-294780D01*
Y-265780D01*
X-170477Y-263681D01*
X-171287Y-261725D01*
X-172576Y-260046D01*
X-174255Y-258757D01*
X-176211Y-257947D01*
X-178310Y-257671D01*
D02*
G37*
%LPD*%
D75*
X26000Y-7000D02*
D03*
Y2000D02*
D03*
Y11000D02*
D03*
Y20000D02*
D03*
Y29000D02*
D03*
X35000Y-7000D02*
D03*
Y2000D02*
D03*
Y11000D02*
D03*
Y20000D02*
D03*
Y29000D02*
D03*
X44000Y-7000D02*
D03*
Y2000D02*
D03*
Y11000D02*
D03*
Y20000D02*
D03*
Y29000D02*
D03*
X53000Y-7000D02*
D03*
Y2000D02*
D03*
Y11000D02*
D03*
Y20000D02*
D03*
Y29000D02*
D03*
X62000Y-7000D02*
D03*
Y2000D02*
D03*
Y11000D02*
D03*
Y20000D02*
D03*
Y29000D02*
D03*
D77*
X-145812Y-79724D02*
X-129536Y-96000D01*
X120000D02*
X192000Y-24000D01*
X-129536Y-96000D02*
X120000D01*
X159470Y-228000D02*
X163470Y-232000D01*
X151000Y-228000D02*
X159470D01*
X163470Y-232000D02*
X164000D01*
X-116000Y-206530D02*
Y-206000D01*
X-117000Y-207530D02*
X-116000Y-206530D01*
X-117000Y-272000D02*
Y-207530D01*
Y-272000D02*
X-86000Y-303000D01*
X41000D01*
X-106521Y-183280D02*
X-99810D01*
X-115929Y-192688D02*
X-106521Y-183280D01*
X13000Y-188000D02*
X51000D01*
X1000Y-200000D02*
X13000Y-188000D01*
X-27544Y-195262D02*
X-16000Y-206807D01*
X19194Y-242000D01*
X124000D01*
X164470Y-255000D02*
X168470Y-251000D01*
X169000D01*
X145000Y-255000D02*
X164470D01*
X-68810Y-150280D02*
X-53913D01*
X-27544Y-176649D01*
Y-195262D02*
Y-176649D01*
X-16000Y-236000D02*
Y-206807D01*
X-39000Y-234000D02*
Y-190000D01*
X-49000Y-180000D02*
X-39000Y-190000D01*
X-82000Y-219000D02*
X-74000Y-211000D01*
X-66000D01*
X-66375Y-210625D02*
X-66000Y-211000D01*
X-66375Y-210625D02*
Y-152715D01*
X-68810Y-150280D02*
X-66375Y-152715D01*
X-243000Y-261000D02*
Y-214000D01*
X-179280Y-150280D02*
X-145810D01*
X-243000Y-214000D02*
X-179280Y-150280D01*
X-152000Y-167000D02*
X-107763D01*
X-196000Y-211000D02*
X-152000Y-167000D01*
X-107763D02*
X-91043Y-150280D01*
X-68810D01*
X-69000Y33000D02*
Y48000D01*
Y33000D02*
X-8000Y-28000D01*
X11000D01*
X-145812Y-79724D02*
Y-48188D01*
X-229000Y35000D02*
X-145812Y-48188D01*
D79*
X202700Y42700D02*
D03*
Y-42700D02*
D03*
D80*
X-229000Y-10000D02*
D03*
Y10000D02*
D03*
Y-35000D02*
D03*
Y35000D02*
D03*
D81*
X26190Y-265280D02*
D03*
X91190Y-190280D02*
D03*
X-183810Y-280280D02*
D03*
D82*
X-250000Y-60000D02*
D03*
Y60000D02*
D03*
D83*
X-99810Y-183280D02*
D03*
X206190Y-190280D02*
D03*
X-40810Y-254280D02*
D03*
X-91810D02*
D03*
D84*
X8000Y-15000D02*
D03*
X193000Y-222000D02*
D03*
X164000Y-232000D02*
D03*
X151000Y-228000D02*
D03*
X18438Y47562D02*
D03*
X32000Y-47000D02*
D03*
X-116000Y-206000D02*
D03*
X41000Y-303000D02*
D03*
X1000Y-200000D02*
D03*
X51000Y-188000D02*
D03*
X82000Y-231000D02*
D03*
X96000Y-226000D02*
D03*
X124000Y-242000D02*
D03*
X138000Y-178000D02*
D03*
X177000Y-183000D02*
D03*
X167000Y-209000D02*
D03*
X205000Y-225000D02*
D03*
X209000Y-267000D02*
D03*
X169000Y-251000D02*
D03*
X145000Y-255000D02*
D03*
X160000Y-295000D02*
D03*
X-16000Y-236000D02*
D03*
X51000Y-260000D02*
D03*
X46000Y-236000D02*
D03*
X14000Y-165000D02*
D03*
X-3000Y-152000D02*
D03*
X21000Y-201000D02*
D03*
X-15000Y-200000D02*
D03*
X-41000Y-171000D02*
D03*
X-49000Y-180000D02*
D03*
X-39000Y-234000D02*
D03*
X-67000Y-222000D02*
D03*
X-126000Y-220000D02*
D03*
X-66000Y-211000D02*
D03*
X-82000Y-219000D02*
D03*
X-101000Y-214000D02*
D03*
X-143000Y-200000D02*
D03*
X-167000Y-190000D02*
D03*
X-153000Y-291000D02*
D03*
X-195000Y-244000D02*
D03*
X-203000Y-240000D02*
D03*
X-231000Y-231000D02*
D03*
X-243000Y-261000D02*
D03*
X-196000Y-211000D02*
D03*
X-183000Y-98000D02*
D03*
X-198000Y-96000D02*
D03*
X77000Y-21000D02*
D03*
X4000Y64000D02*
D03*
X192000Y-24000D02*
D03*
X150000Y-16000D02*
D03*
X189000Y0D02*
D03*
X134000Y66000D02*
D03*
X101000Y25000D02*
D03*
X89000Y-2000D02*
D03*
X32000Y-37000D02*
D03*
X-4000Y-2000D02*
D03*
X34070Y71000D02*
D03*
X-5713Y-22480D02*
D03*
X107000Y-29000D02*
D03*
X62000Y-50000D02*
D03*
X50675Y74000D02*
D03*
X40000Y76000D02*
D03*
X151000Y-75000D02*
D03*
X114000Y-87000D02*
D03*
X167000Y34000D02*
D03*
X166000Y-35000D02*
D03*
X156000Y49000D02*
D03*
X148000Y22000D02*
D03*
X96000Y-21000D02*
D03*
X134000Y37000D02*
D03*
X133000Y55000D02*
D03*
X77000Y72000D02*
D03*
X85000Y82000D02*
D03*
X-50000Y46000D02*
D03*
X-46000Y63000D02*
D03*
X11000Y-28000D02*
D03*
X-69000Y48000D02*
D03*
X-99000D02*
D03*
X69000Y62000D02*
D03*
X-11000Y43000D02*
D03*
X-15000Y6000D02*
D03*
X-213000Y-45000D02*
D03*
D85*
X-109810Y-150280D02*
D03*
X-68810D02*
D03*
X-145810D02*
D03*
X51190Y-160280D02*
D03*
X-30810Y-150280D02*
D03*
X123690Y-190280D02*
D03*
X-30812Y-79724D02*
D03*
X-68812D02*
D03*
X-109812D02*
D03*
X-145812D02*
D03*
X122500Y-40000D02*
D03*
X50000Y-70000D02*
D03*
M02*
