G04*
G04 #@! TF.GenerationSoftware,Altium Limited,Altium Designer,24.9.1 (31)*
G04*
G04 Layer_Color=8421504*
%FSLAX44Y44*%
%MOMM*%
G71*
G04*
G04 #@! TF.SameCoordinates,4108D936-EA1F-4614-87FC-E1DBC89B4A7E*
G04*
G04*
G04 #@! TF.FilePolarity,Positive*
G04*
G01*
G75*
%ADD14C,0.3000*%
%ADD15R,0.3500X0.8500*%
%ADD16R,0.3500X0.8500*%
%ADD17R,1.4000X0.3000*%
%ADD18R,1.4500X2.0000*%
%ADD19R,0.8000X1.5000*%
%ADD20R,0.5590X0.7240*%
%ADD21R,1.9000X1.4500*%
%ADD22R,1.1500X1.8000*%
%ADD23R,0.9000X1.0500*%
%ADD24R,0.8121X0.6587*%
%ADD25R,0.4000X0.5000*%
%ADD26R,0.8000X0.9000*%
%ADD27R,0.9000X0.8000*%
%ADD28R,0.6587X0.8121*%
%ADD29R,0.5000X0.4000*%
%ADD30R,0.9582X1.1061*%
%ADD31R,0.9000X0.8000*%
G04:AMPARAMS|DCode=32|XSize=2.4692mm|YSize=0.6221mm|CornerRadius=0.3111mm|HoleSize=0mm|Usage=FLASHONLY|Rotation=180.000|XOffset=0mm|YOffset=0mm|HoleType=Round|Shape=RoundedRectangle|*
%AMROUNDEDRECTD32*
21,1,2.4692,0.0000,0,0,180.0*
21,1,1.8470,0.6221,0,0,180.0*
1,1,0.6221,-0.9235,0.0000*
1,1,0.6221,0.9235,0.0000*
1,1,0.6221,0.9235,0.0000*
1,1,0.6221,-0.9235,0.0000*
%
%ADD32ROUNDEDRECTD32*%
%ADD33R,2.4692X0.6221*%
%ADD34R,1.6000X1.0000*%
%ADD35R,0.6000X1.2500*%
%ADD36R,0.8000X0.6000*%
G04:AMPARAMS|DCode=37|XSize=0.55mm|YSize=0.8mm|CornerRadius=0.0495mm|HoleSize=0mm|Usage=FLASHONLY|Rotation=0.000|XOffset=0mm|YOffset=0mm|HoleType=Round|Shape=RoundedRectangle|*
%AMROUNDEDRECTD37*
21,1,0.5500,0.7010,0,0,0.0*
21,1,0.4510,0.8000,0,0,0.0*
1,1,0.0990,0.2255,-0.3505*
1,1,0.0990,-0.2255,-0.3505*
1,1,0.0990,-0.2255,0.3505*
1,1,0.0990,0.2255,0.3505*
%
%ADD37ROUNDEDRECTD37*%
%ADD38R,1.0000X0.6000*%
%ADD39R,0.9500X0.9000*%
%ADD40R,1.1061X0.9582*%
%ADD41R,0.9900X0.3000*%
%ADD42R,1.4546X1.5562*%
%ADD43R,1.3000X1.1000*%
%ADD44R,0.4627X0.5541*%
%ADD45R,1.1500X1.4000*%
%ADD46R,0.8061X0.8582*%
%ADD47R,0.5000X1.5240*%
%ADD48R,1.5240X1.5240*%
%ADD49R,0.7240X0.5590*%
G36*
X64651Y43025D02*
X64975Y42701D01*
X65150Y42279D01*
Y42050D01*
X65150D01*
X65150Y36150D01*
Y35921D01*
X64975Y35499D01*
X64651Y35175D01*
X64229Y35000D01*
X63771D01*
X63349Y35175D01*
X63025Y35499D01*
X62850Y35921D01*
Y36150D01*
Y42050D01*
Y42279D01*
X63025Y42701D01*
X63349Y43025D01*
X63771Y43200D01*
X64229D01*
X64651Y43025D01*
D02*
G37*
G36*
X59651D02*
X59975Y42701D01*
X60150Y42279D01*
Y42050D01*
Y36150D01*
Y35921D01*
X59975Y35499D01*
X59651Y35175D01*
X59229Y35000D01*
X58771D01*
X58349Y35175D01*
X58025Y35499D01*
X57850Y35921D01*
Y36150D01*
X57850D01*
X57850Y42050D01*
Y42279D01*
X58025Y42701D01*
X58349Y43025D01*
X58771Y43200D01*
X59229D01*
X59651Y43025D01*
D02*
G37*
G36*
X54651D02*
X54975Y42701D01*
X55150Y42279D01*
Y42050D01*
X55150D01*
X55150Y36150D01*
Y35921D01*
X54975Y35499D01*
X54651Y35175D01*
X54229Y35000D01*
X53771D01*
X53349Y35175D01*
X53025Y35499D01*
X52850Y35921D01*
Y36150D01*
Y42050D01*
Y42279D01*
X53025Y42701D01*
X53349Y43025D01*
X53771Y43200D01*
X54229D01*
X54651Y43025D01*
D02*
G37*
G36*
X49651D02*
X49975Y42701D01*
X50150Y42279D01*
Y42050D01*
Y36150D01*
Y35921D01*
X49975Y35499D01*
X49651Y35175D01*
X49229Y35000D01*
X48771D01*
X48349Y35175D01*
X48025Y35499D01*
X47850Y35921D01*
Y36150D01*
X47850D01*
X47850Y42050D01*
Y42279D01*
X48025Y42701D01*
X48349Y43025D01*
X48771Y43200D01*
X49229D01*
X49651Y43025D01*
D02*
G37*
G36*
X44651D02*
X44975Y42701D01*
X45150Y42279D01*
Y42050D01*
Y36150D01*
Y35921D01*
X44975Y35499D01*
X44651Y35175D01*
X44229Y35000D01*
X43771D01*
X43349Y35175D01*
X43025Y35499D01*
X42850Y35921D01*
Y36150D01*
Y42050D01*
Y42279D01*
X43025Y42701D01*
X43349Y43025D01*
X43771Y43200D01*
X44229D01*
X44651Y43025D01*
D02*
G37*
G36*
X39651D02*
X39975Y42701D01*
X40150Y42279D01*
Y42050D01*
X40150D01*
X40150Y36150D01*
Y35921D01*
X39975Y35499D01*
X39651Y35175D01*
X39229Y35000D01*
X38771D01*
X38349Y35175D01*
X38025Y35499D01*
X37850Y35921D01*
Y36150D01*
Y42050D01*
Y42279D01*
X38025Y42701D01*
X38349Y43025D01*
X38771Y43200D01*
X39229D01*
X39651Y43025D01*
D02*
G37*
G36*
X34651D02*
X34975Y42701D01*
X35150Y42279D01*
Y42050D01*
Y36150D01*
Y35921D01*
X34975Y35499D01*
X34651Y35175D01*
X34229Y35000D01*
X33771D01*
X33349Y35175D01*
X33025Y35499D01*
X32850Y35921D01*
Y36150D01*
X32850D01*
X32850Y42050D01*
Y42279D01*
X33025Y42701D01*
X33349Y43025D01*
X33771Y43200D01*
X34229D01*
X34651Y43025D01*
D02*
G37*
G36*
X29651D02*
X29975Y42701D01*
X30150Y42279D01*
Y42050D01*
X30150D01*
X30150Y36150D01*
Y35921D01*
X29975Y35499D01*
X29651Y35175D01*
X29229Y35000D01*
X28771D01*
X28349Y35175D01*
X28025Y35499D01*
X27850Y35921D01*
Y36150D01*
Y42050D01*
Y42279D01*
X28025Y42701D01*
X28349Y43025D01*
X28771Y43200D01*
X29229D01*
X29651Y43025D01*
D02*
G37*
G36*
X24651D02*
X24975Y42701D01*
X25150Y42279D01*
Y42050D01*
Y36150D01*
Y35921D01*
X24975Y35499D01*
X24651Y35175D01*
X24229Y35000D01*
X23771D01*
X23349Y35175D01*
X23025Y35499D01*
X22850Y35921D01*
Y36150D01*
X22850D01*
X22850Y42050D01*
Y42279D01*
X23025Y42701D01*
X23349Y43025D01*
X23771Y43200D01*
X24229D01*
X24651Y43025D01*
D02*
G37*
G36*
X75701Y31975D02*
X76025Y31651D01*
X76200Y31229D01*
Y31000D01*
Y30771D01*
X76025Y30349D01*
X75701Y30025D01*
X75279Y29850D01*
X68921D01*
X68499Y30025D01*
X68175Y30349D01*
X68000Y30771D01*
Y31000D01*
Y31229D01*
X68175Y31651D01*
X68499Y31975D01*
X68921Y32150D01*
X69150D01*
Y32150D01*
X75050Y32150D01*
X75279D01*
X75701Y31975D01*
D02*
G37*
G36*
X19501D02*
X19825Y31651D01*
X20000Y31229D01*
Y31000D01*
Y30771D01*
X19825Y30349D01*
X19501Y30025D01*
X19079Y29850D01*
X12721D01*
X12299Y30025D01*
X11975Y30349D01*
X11800Y30771D01*
Y31000D01*
Y31229D01*
X11975Y31651D01*
X12299Y31975D01*
X12721Y32150D01*
X12950D01*
Y32150D01*
X18850Y32150D01*
X19079D01*
X19501Y31975D01*
D02*
G37*
G36*
X75701Y26975D02*
X76025Y26651D01*
X76200Y26229D01*
Y26000D01*
Y25771D01*
X76025Y25349D01*
X75701Y25025D01*
X75279Y24850D01*
X75050D01*
Y24850D01*
X69150Y24850D01*
X68921D01*
X68499Y25025D01*
X68175Y25349D01*
X68000Y25771D01*
Y26000D01*
Y26229D01*
X68175Y26651D01*
X68499Y26975D01*
X68921Y27150D01*
X75279D01*
X75701Y26975D01*
D02*
G37*
G36*
X19501D02*
X19825Y26651D01*
X20000Y26229D01*
Y26000D01*
Y25771D01*
X19825Y25349D01*
X19501Y25025D01*
X19079Y24850D01*
X18850D01*
Y24850D01*
X12950Y24850D01*
X12721D01*
X12299Y25025D01*
X11975Y25349D01*
X11800Y25771D01*
Y26000D01*
Y26229D01*
X11975Y26651D01*
X12299Y26975D01*
X12721Y27150D01*
X19079D01*
X19501Y26975D01*
D02*
G37*
G36*
X75701Y21975D02*
X76025Y21651D01*
X76200Y21229D01*
Y21000D01*
Y20771D01*
X76025Y20349D01*
X75701Y20025D01*
X75279Y19850D01*
X68921D01*
X68499Y20025D01*
X68175Y20349D01*
X68000Y20771D01*
Y21000D01*
Y21229D01*
X68175Y21651D01*
X68499Y21975D01*
X68921Y22150D01*
X69150D01*
Y22150D01*
X75050Y22150D01*
X75279D01*
X75701Y21975D01*
D02*
G37*
G36*
X19501D02*
X19825Y21651D01*
X20000Y21229D01*
Y21000D01*
Y20771D01*
X19825Y20349D01*
X19501Y20025D01*
X19079Y19850D01*
X12721D01*
X12299Y20025D01*
X11975Y20349D01*
X11800Y20771D01*
Y21000D01*
Y21229D01*
X11975Y21651D01*
X12299Y21975D01*
X12721Y22150D01*
X12950D01*
Y22150D01*
X18850Y22150D01*
X19079D01*
X19501Y21975D01*
D02*
G37*
G36*
X75701Y16975D02*
X76025Y16651D01*
X76200Y16229D01*
Y16000D01*
Y15771D01*
X76025Y15349D01*
X75701Y15025D01*
X75279Y14850D01*
X75050D01*
Y14850D01*
X69150Y14850D01*
X68921D01*
X68499Y15025D01*
X68175Y15349D01*
X68000Y15771D01*
Y16000D01*
Y16229D01*
X68175Y16651D01*
X68499Y16975D01*
X68921Y17150D01*
X75279D01*
X75701Y16975D01*
D02*
G37*
G36*
X19501D02*
X19825Y16651D01*
X20000Y16229D01*
Y16000D01*
Y15771D01*
X19825Y15349D01*
X19501Y15025D01*
X19079Y14850D01*
X18850D01*
Y14850D01*
X12950Y14850D01*
X12721D01*
X12299Y15025D01*
X11975Y15349D01*
X11800Y15771D01*
Y16000D01*
Y16229D01*
X11975Y16651D01*
X12299Y16975D01*
X12721Y17150D01*
X19079D01*
X19501Y16975D01*
D02*
G37*
G36*
X75701Y11975D02*
X76025Y11651D01*
X76200Y11229D01*
Y11000D01*
Y10771D01*
X76025Y10349D01*
X75701Y10025D01*
X75279Y9850D01*
X68921D01*
X68499Y10025D01*
X68175Y10349D01*
X68000Y10771D01*
Y11000D01*
Y11229D01*
X68175Y11651D01*
X68499Y11975D01*
X68921Y12150D01*
X75279D01*
X75701Y11975D01*
D02*
G37*
G36*
X19501D02*
X19825Y11651D01*
X20000Y11229D01*
Y11000D01*
Y10771D01*
X19825Y10349D01*
X19501Y10025D01*
X19079Y9850D01*
X12721D01*
X12299Y10025D01*
X11975Y10349D01*
X11800Y10771D01*
Y11000D01*
Y11229D01*
X11975Y11651D01*
X12299Y11975D01*
X12721Y12150D01*
X19079D01*
X19501Y11975D01*
D02*
G37*
G36*
X75701Y6975D02*
X76025Y6651D01*
X76200Y6229D01*
Y6000D01*
Y5771D01*
X76025Y5349D01*
X75701Y5025D01*
X75279Y4850D01*
X68921D01*
X68499Y5025D01*
X68175Y5349D01*
X68000Y5771D01*
Y6000D01*
Y6229D01*
X68175Y6651D01*
X68499Y6975D01*
X68921Y7150D01*
X69150D01*
Y7150D01*
X75050Y7150D01*
X75279D01*
X75701Y6975D01*
D02*
G37*
G36*
X19501D02*
X19825Y6651D01*
X20000Y6229D01*
Y6000D01*
Y5771D01*
X19825Y5349D01*
X19501Y5025D01*
X19079Y4850D01*
X12721D01*
X12299Y5025D01*
X11975Y5349D01*
X11800Y5771D01*
Y6000D01*
Y6229D01*
X11975Y6651D01*
X12299Y6975D01*
X12721Y7150D01*
X12950D01*
Y7150D01*
X18850Y7150D01*
X19079D01*
X19501Y6975D01*
D02*
G37*
G36*
X75701Y1975D02*
X76025Y1651D01*
X76200Y1229D01*
Y1000D01*
Y771D01*
X76025Y349D01*
X75701Y25D01*
X75279Y-150D01*
X75050D01*
Y-150D01*
X69150Y-150D01*
X68921D01*
X68499Y25D01*
X68175Y349D01*
X68000Y771D01*
Y1000D01*
Y1229D01*
X68175Y1651D01*
X68499Y1975D01*
X68921Y2150D01*
X75279D01*
X75701Y1975D01*
D02*
G37*
G36*
X19501D02*
X19825Y1651D01*
X20000Y1229D01*
Y1000D01*
Y771D01*
X19825Y349D01*
X19501Y25D01*
X19079Y-150D01*
X18850D01*
Y-150D01*
X12950Y-150D01*
X12721D01*
X12299Y25D01*
X11975Y349D01*
X11800Y771D01*
Y1000D01*
Y1229D01*
X11975Y1651D01*
X12299Y1975D01*
X12721Y2150D01*
X19079D01*
X19501Y1975D01*
D02*
G37*
G36*
X75701Y-3025D02*
X76025Y-3349D01*
X76200Y-3771D01*
Y-4000D01*
Y-4229D01*
X76025Y-4651D01*
X75701Y-4975D01*
X75279Y-5150D01*
X68921D01*
X68499Y-4975D01*
X68175Y-4651D01*
X68000Y-4229D01*
Y-4000D01*
Y-3771D01*
X68175Y-3349D01*
X68499Y-3025D01*
X68921Y-2850D01*
X69150D01*
Y-2850D01*
X75050Y-2850D01*
X75279D01*
X75701Y-3025D01*
D02*
G37*
G36*
X19501D02*
X19825Y-3349D01*
X20000Y-3771D01*
Y-4000D01*
Y-4229D01*
X19825Y-4651D01*
X19501Y-4975D01*
X19079Y-5150D01*
X12721D01*
X12299Y-4975D01*
X11975Y-4651D01*
X11800Y-4229D01*
Y-4000D01*
Y-3771D01*
X11975Y-3349D01*
X12299Y-3025D01*
X12721Y-2850D01*
X12950D01*
Y-2850D01*
X18850Y-2850D01*
X19079D01*
X19501Y-3025D01*
D02*
G37*
G36*
X75701Y-8025D02*
X76025Y-8349D01*
X76200Y-8771D01*
Y-9000D01*
Y-9229D01*
X76025Y-9651D01*
X75701Y-9975D01*
X75279Y-10150D01*
X75050D01*
Y-10150D01*
X69150Y-10150D01*
X68921D01*
X68499Y-9975D01*
X68175Y-9651D01*
X68000Y-9229D01*
Y-9000D01*
Y-8771D01*
X68175Y-8349D01*
X68499Y-8025D01*
X68921Y-7850D01*
X75279D01*
X75701Y-8025D01*
D02*
G37*
G36*
X19501D02*
X19825Y-8349D01*
X20000Y-8771D01*
Y-9000D01*
Y-9229D01*
X19825Y-9651D01*
X19501Y-9975D01*
X19079Y-10150D01*
X18850D01*
Y-10150D01*
X12950Y-10150D01*
X12721D01*
X12299Y-9975D01*
X11975Y-9651D01*
X11800Y-9229D01*
Y-9000D01*
Y-8771D01*
X11975Y-8349D01*
X12299Y-8025D01*
X12721Y-7850D01*
X19079D01*
X19501Y-8025D01*
D02*
G37*
G36*
X64651Y-13175D02*
X64975Y-13499D01*
X65150Y-13921D01*
Y-14150D01*
X65150D01*
X65150Y-20050D01*
Y-20279D01*
X64975Y-20701D01*
X64651Y-21025D01*
X64229Y-21200D01*
X63771D01*
X63349Y-21025D01*
X63025Y-20701D01*
X62850Y-20279D01*
Y-20050D01*
Y-14150D01*
Y-13921D01*
X63025Y-13499D01*
X63349Y-13175D01*
X63771Y-13000D01*
X64229D01*
X64651Y-13175D01*
D02*
G37*
G36*
X59651D02*
X59975Y-13499D01*
X60150Y-13921D01*
Y-14150D01*
Y-20050D01*
Y-20279D01*
X59975Y-20701D01*
X59651Y-21025D01*
X59229Y-21200D01*
X58771D01*
X58349Y-21025D01*
X58025Y-20701D01*
X57850Y-20279D01*
Y-20050D01*
X57850D01*
X57850Y-14150D01*
Y-13921D01*
X58025Y-13499D01*
X58349Y-13175D01*
X58771Y-13000D01*
X59229D01*
X59651Y-13175D01*
D02*
G37*
G36*
X54651D02*
X54975Y-13499D01*
X55150Y-13921D01*
Y-14150D01*
X55150D01*
X55150Y-20050D01*
Y-20279D01*
X54975Y-20701D01*
X54651Y-21025D01*
X54229Y-21200D01*
X53771D01*
X53349Y-21025D01*
X53025Y-20701D01*
X52850Y-20279D01*
Y-20050D01*
Y-14150D01*
Y-13921D01*
X53025Y-13499D01*
X53349Y-13175D01*
X53771Y-13000D01*
X54229D01*
X54651Y-13175D01*
D02*
G37*
G36*
X49651D02*
X49975Y-13499D01*
X50150Y-13921D01*
Y-14150D01*
Y-20050D01*
Y-20279D01*
X49975Y-20701D01*
X49651Y-21025D01*
X49229Y-21200D01*
X48771D01*
X48349Y-21025D01*
X48025Y-20701D01*
X47850Y-20279D01*
Y-20050D01*
X47850D01*
X47850Y-14150D01*
Y-13921D01*
X48025Y-13499D01*
X48349Y-13175D01*
X48771Y-13000D01*
X49229D01*
X49651Y-13175D01*
D02*
G37*
G36*
X44651D02*
X44975Y-13499D01*
X45150Y-13921D01*
Y-14150D01*
Y-20050D01*
Y-20279D01*
X44975Y-20701D01*
X44651Y-21025D01*
X44229Y-21200D01*
X43771D01*
X43349Y-21025D01*
X43025Y-20701D01*
X42850Y-20279D01*
Y-20050D01*
Y-14150D01*
Y-13921D01*
X43025Y-13499D01*
X43349Y-13175D01*
X43771Y-13000D01*
X44229D01*
X44651Y-13175D01*
D02*
G37*
G36*
X39651D02*
X39975Y-13499D01*
X40150Y-13921D01*
Y-14150D01*
X40150D01*
X40150Y-20050D01*
Y-20279D01*
X39975Y-20701D01*
X39651Y-21025D01*
X39229Y-21200D01*
X38771D01*
X38349Y-21025D01*
X38025Y-20701D01*
X37850Y-20279D01*
Y-20050D01*
Y-14150D01*
Y-13921D01*
X38025Y-13499D01*
X38349Y-13175D01*
X38771Y-13000D01*
X39229D01*
X39651Y-13175D01*
D02*
G37*
G36*
X34651D02*
X34975Y-13499D01*
X35150Y-13921D01*
Y-14150D01*
Y-20050D01*
Y-20279D01*
X34975Y-20701D01*
X34651Y-21025D01*
X34229Y-21200D01*
X33771D01*
X33349Y-21025D01*
X33025Y-20701D01*
X32850Y-20279D01*
Y-20050D01*
X32850D01*
X32850Y-14150D01*
Y-13921D01*
X33025Y-13499D01*
X33349Y-13175D01*
X33771Y-13000D01*
X34229D01*
X34651Y-13175D01*
D02*
G37*
G36*
X29651D02*
X29975Y-13499D01*
X30150Y-13921D01*
Y-14150D01*
X30150D01*
X30150Y-20050D01*
Y-20279D01*
X29975Y-20701D01*
X29651Y-21025D01*
X29229Y-21200D01*
X28771D01*
X28349Y-21025D01*
X28025Y-20701D01*
X27850Y-20279D01*
Y-20050D01*
Y-14150D01*
Y-13921D01*
X28025Y-13499D01*
X28349Y-13175D01*
X28771Y-13000D01*
X29229D01*
X29651Y-13175D01*
D02*
G37*
G36*
X24651D02*
X24975Y-13499D01*
X25150Y-13921D01*
Y-14150D01*
Y-20050D01*
Y-20279D01*
X24975Y-20701D01*
X24651Y-21025D01*
X24229Y-21200D01*
X23771D01*
X23349Y-21025D01*
X23025Y-20701D01*
X22850Y-20279D01*
Y-20050D01*
X22850D01*
X22850Y-14150D01*
Y-13921D01*
X23025Y-13499D01*
X23349Y-13175D01*
X23771Y-13000D01*
X24229D01*
X24651Y-13175D01*
D02*
G37*
D14*
X32000Y-2500D02*
G03*
X32000Y-2500I-1500J0D01*
G01*
Y6500D02*
G03*
X32000Y6500I-1500J0D01*
G01*
Y15500D02*
G03*
X32000Y15500I-1500J0D01*
G01*
Y24500D02*
G03*
X32000Y24500I-1500J0D01*
G01*
X41000Y-2500D02*
G03*
X41000Y-2500I-1500J0D01*
G01*
Y6500D02*
G03*
X41000Y6500I-1500J0D01*
G01*
Y15500D02*
G03*
X41000Y15500I-1500J0D01*
G01*
Y24500D02*
G03*
X41000Y24500I-1500J0D01*
G01*
X50000Y-2500D02*
G03*
X50000Y-2500I-1500J0D01*
G01*
Y6500D02*
G03*
X50000Y6500I-1500J0D01*
G01*
Y15500D02*
G03*
X50000Y15500I-1500J0D01*
G01*
Y24500D02*
G03*
X50000Y24500I-1500J0D01*
G01*
X59000Y-2500D02*
G03*
X59000Y-2500I-1500J0D01*
G01*
Y6500D02*
G03*
X59000Y6500I-1500J0D01*
G01*
Y15500D02*
G03*
X59000Y15500I-1500J0D01*
G01*
Y24500D02*
G03*
X59000Y24500I-1500J0D01*
G01*
D15*
X177690Y-241280D02*
D03*
X164690Y-241280D02*
D03*
Y-219280D02*
D03*
X177690Y-219280D02*
D03*
D16*
X171191Y-241281D02*
D03*
Y-219281D02*
D03*
D17*
X176700Y27500D02*
D03*
Y22500D02*
D03*
Y17500D02*
D03*
Y12500D02*
D03*
Y7500D02*
D03*
Y2500D02*
D03*
Y-2500D02*
D03*
Y-7500D02*
D03*
Y-12500D02*
D03*
Y-17500D02*
D03*
Y-22500D02*
D03*
Y-27500D02*
D03*
D18*
X-27250Y-23500D02*
D03*
X-164750D02*
D03*
X-27250Y59500D02*
D03*
X-164750D02*
D03*
D19*
X-128050Y33500D02*
D03*
X-117050D02*
D03*
X-106050D02*
D03*
X-95050D02*
D03*
X-84050D02*
D03*
X-73050D02*
D03*
X-62050D02*
D03*
X-51050D02*
D03*
D20*
X21190Y-170435D02*
D03*
X30690Y-190125D02*
D03*
X11690D02*
D03*
X136190Y-240125D02*
D03*
X126690Y-220435D02*
D03*
X145690D02*
D03*
D21*
X61190Y-213530D02*
D03*
Y-247030D02*
D03*
D22*
X126690Y-160280D02*
D03*
X155690D02*
D03*
D23*
X25940Y-210280D02*
D03*
X40440D02*
D03*
D24*
X-33810Y-190047D02*
D03*
Y-176513D02*
D03*
X176190Y-188513D02*
D03*
Y-202047D02*
D03*
X-158810Y-268513D02*
D03*
Y-282047D02*
D03*
X56190Y-288513D02*
D03*
Y-302047D02*
D03*
D25*
X102190Y-220280D02*
D03*
X110190D02*
D03*
X-9000Y6000D02*
D03*
X-1000D02*
D03*
X9000Y58000D02*
D03*
X17000D02*
D03*
D26*
X-91310Y-208280D02*
D03*
X-76310D02*
D03*
X-221310Y-225280D02*
D03*
X-206310D02*
D03*
X111500Y31000D02*
D03*
X126500D02*
D03*
D27*
X-8810Y-192780D02*
D03*
Y-177780D02*
D03*
X-158810Y-197780D02*
D03*
Y-212780D02*
D03*
X149000Y58500D02*
D03*
Y73500D02*
D03*
X-6000Y21000D02*
D03*
Y36000D02*
D03*
X94000Y73500D02*
D03*
Y58500D02*
D03*
D28*
X212957Y-255280D02*
D03*
X199423D02*
D03*
X70767Y-39000D02*
D03*
X57233D02*
D03*
X100767D02*
D03*
X87233D02*
D03*
D29*
X86190Y-236280D02*
D03*
Y-244280D02*
D03*
X-8810Y-156280D02*
D03*
Y-164280D02*
D03*
X-208810Y-252519D02*
D03*
Y-244519D02*
D03*
X-138810Y-206280D02*
D03*
Y-214280D02*
D03*
X-193000Y-89000D02*
D03*
Y-81000D02*
D03*
X79000Y65000D02*
D03*
Y57000D02*
D03*
X39000Y-43000D02*
D03*
Y-35000D02*
D03*
D30*
X-228000Y-261761D02*
D03*
Y-248239D02*
D03*
D31*
X-142310Y-255280D02*
D03*
X-125310D02*
D03*
X9690Y-210280D02*
D03*
X-7310D02*
D03*
D32*
X92054Y-304330D02*
D03*
Y-291630D02*
D03*
Y-278930D02*
D03*
Y-266230D02*
D03*
X140326D02*
D03*
Y-278930D02*
D03*
Y-291630D02*
D03*
D33*
Y-304330D02*
D03*
D34*
X150000Y-86000D02*
D03*
Y-54000D02*
D03*
D35*
X47190Y-270280D02*
D03*
X65190D02*
D03*
D36*
X-178000Y-91500D02*
D03*
Y-78500D02*
D03*
X94000Y6500D02*
D03*
Y19500D02*
D03*
D37*
X215690Y-212530D02*
D03*
X206190D02*
D03*
X196690D02*
D03*
Y-238030D02*
D03*
X215690D02*
D03*
D38*
X-161810Y-230780D02*
D03*
Y-249780D02*
D03*
X-185810D02*
D03*
Y-240280D02*
D03*
Y-230780D02*
D03*
X-31810Y-208780D02*
D03*
Y-227780D02*
D03*
X-55810D02*
D03*
Y-218280D02*
D03*
Y-208780D02*
D03*
D39*
X-58810Y-175280D02*
D03*
Y-191280D02*
D03*
D40*
X112239Y71000D02*
D03*
X125761D02*
D03*
D41*
X44950Y57000D02*
D03*
Y62000D02*
D03*
Y67000D02*
D03*
X61050D02*
D03*
Y62000D02*
D03*
Y57000D02*
D03*
D42*
X-1000Y-39000D02*
D03*
X17516D02*
D03*
D43*
X125000Y-80500D02*
D03*
Y-59500D02*
D03*
D44*
X94000Y-12543D02*
D03*
Y-5457D02*
D03*
X144000Y14543D02*
D03*
Y7457D02*
D03*
D45*
X111000Y12000D02*
D03*
Y-10000D02*
D03*
X127000D02*
D03*
Y12000D02*
D03*
D46*
X112989Y48000D02*
D03*
X125011D02*
D03*
D47*
X75000Y-70000D02*
D03*
D48*
X97500D02*
D03*
D49*
X141345Y-190280D02*
D03*
X161035Y-180780D02*
D03*
Y-199780D02*
D03*
M02*
