G04*
G04 #@! TF.GenerationSoftware,Altium Limited,Altium Designer,24.9.1 (31)*
G04*
G04 Layer_Color=0*
%FSLAX44Y44*%
%MOMM*%
G71*
G04*
G04 #@! TF.SameCoordinates,4108D936-EA1F-4614-87FC-E1DBC89B4A7E*
G04*
G04*
G04 #@! TF.FilePolarity,Positive*
G04*
G01*
G75*
%ADD87C,0.0254*%
G36*
X-140000Y-125004D02*
X-141317D01*
X-143861Y-124322D01*
X-146143Y-123005D01*
X-148005Y-121143D01*
X-149322Y-118861D01*
X-150004Y-116317D01*
Y-113683D01*
X-149322Y-111139D01*
X-148005Y-108857D01*
X-146143Y-106995D01*
X-143861Y-105678D01*
X-141317Y-104996D01*
X-140000D01*
D01*
X80000D01*
X80985D01*
X82918Y-105381D01*
X84739Y-106135D01*
X86377Y-107229D01*
X87771Y-108623D01*
X88865Y-110261D01*
X89619Y-112082D01*
X90004Y-114015D01*
Y-115000D01*
Y-115985D01*
X89619Y-117918D01*
X88865Y-119739D01*
X87771Y-121377D01*
X86377Y-122771D01*
X84739Y-123865D01*
X82918Y-124619D01*
X80985Y-125004D01*
X80000D01*
D01*
X-140000D01*
D02*
G37*
D87*
X-240000Y-325000D02*
G02*
X-280000Y-285000I0J40000D01*
G01*
X-280000Y-165000D01*
D02*
G02*
X-240000Y-125000I40000J0D01*
G01*
X-225000Y-125000D01*
D02*
G03*
X-225000Y-105000I0J10000D01*
G01*
X-240000D01*
D02*
G02*
X-280000Y-65000I0J40000D01*
G01*
X-280000Y55000D01*
D02*
G02*
X-240000Y95000I40000J0D01*
G01*
X170000Y95000D01*
D02*
G03*
X210000Y55000I40000J0D01*
G01*
D02*
G02*
X235000Y30000I0J-25000D01*
G01*
Y-40000D01*
D02*
G02*
X210000Y-65000I-25000J0D01*
G01*
D02*
G03*
X170000Y-105000I0J-40000D01*
G01*
X165000Y-105000D01*
D02*
G03*
X165000Y-125000I0J-10000D01*
G01*
X170000D01*
D02*
G03*
X210000Y-165000I40000J0D01*
G01*
D02*
G02*
X235000Y-190000I0J-25000D01*
G01*
Y-260000D01*
D02*
G02*
X210000Y-285000I-25000J0D01*
G01*
D02*
G03*
X170000Y-325000I0J-40000D01*
G01*
X-240000Y-325000D01*
M02*
